ISO-10303-21;
HEADER;
FILE_DESCRIPTION(('FreeCAD Model'),'2;1');
FILE_NAME('Open CASCADE Shape Model','2026-10-01T23:00:31',('FreeCAD'),(
    'FreeCAD'),'Open CASCADE STEP processor 7.8','FreeCAD','Unknown');
FILE_SCHEMA(('AUTOMOTIVE_DESIGN { 1 0 10303 214 1 1 1 1 }'));
ENDSEC;
DATA;
#1 = APPLICATION_PROTOCOL_DEFINITION('international standard',
  'automotive_design',2000,#2);
#2 = APPLICATION_CONTEXT(
  'core data for automotive mechanical design processes');
#3 = SHAPE_DEFINITION_REPRESENTATION(#4,#10);
#4 = PRODUCT_DEFINITION_SHAPE('','',#5);
#5 = PRODUCT_DEFINITION('design','',#6,#9);
#6 = PRODUCT_DEFINITION_FORMATION('','',#7);
#7 = PRODUCT('Open CASCADE STEP translator 7.8 8',
  'Open CASCADE STEP translator 7.8 8','',(#8));
#8 = PRODUCT_CONTEXT('',#2,'mechanical');
#9 = PRODUCT_DEFINITION_CONTEXT('part definition',#2,'design');
#10 = ADVANCED_BREP_SHAPE_REPRESENTATION('',(#11,#15),#1089);
#11 = AXIS2_PLACEMENT_3D('',#12,#13,#14);
#12 = CARTESIAN_POINT('',(0.,0.,0.));
#13 = DIRECTION('',(0.,0.,1.));
#14 = DIRECTION('',(1.,0.,-0.));
#15 = MANIFOLD_SOLID_BREP('',#16);
#16 = CLOSED_SHELL('',(#17,#59,#90,#245,#269,#421,#454,#471,#511,#551,
    #575,#608,#625,#642,#659,#676,#709,#733,#757,#781,#805,#822,#846,
    #871,#895,#920,#958,#983,#1007,#1032,#1049,#1077));
#17 = ADVANCED_FACE('',(#18),#54,.T.);
#18 = FACE_BOUND('',#19,.F.);
#19 = EDGE_LOOP('',(#20,#30,#39,#47));
#20 = ORIENTED_EDGE('',*,*,#21,.F.);
#21 = EDGE_CURVE('',#22,#24,#26,.T.);
#22 = VERTEX_POINT('',#23);
#23 = CARTESIAN_POINT('',(-9.4,14.55,4.8));
#24 = VERTEX_POINT('',#25);
#25 = CARTESIAN_POINT('',(-9.4,14.55,1.7763568394E-15));
#26 = LINE('',#27,#28);
#27 = CARTESIAN_POINT('',(-9.4,14.55,4.8));
#28 = VECTOR('',#29,1.);
#29 = DIRECTION('',(0.,-1.224646799147E-16,-1.));
#30 = ORIENTED_EDGE('',*,*,#31,.F.);
#31 = EDGE_CURVE('',#32,#22,#34,.T.);
#32 = VERTEX_POINT('',#33);
#33 = CARTESIAN_POINT('',(-12.95,11.,4.8));
#34 = CIRCLE('',#35,3.55);
#35 = AXIS2_PLACEMENT_3D('',#36,#37,#38);
#36 = CARTESIAN_POINT('',(-9.4,11.,4.8));
#37 = DIRECTION('',(0.,-1.224646799147E-16,-1.));
#38 = DIRECTION('',(1.,0.,0.));
#39 = ORIENTED_EDGE('',*,*,#40,.T.);
#40 = EDGE_CURVE('',#32,#41,#43,.T.);
#41 = VERTEX_POINT('',#42);
#42 = CARTESIAN_POINT('',(-12.95,11.,1.7763568394E-15));
#43 = LINE('',#44,#45);
#44 = CARTESIAN_POINT('',(-12.95,11.,4.8));
#45 = VECTOR('',#46,1.);
#46 = DIRECTION('',(0.,-1.224646799147E-16,-1.));
#47 = ORIENTED_EDGE('',*,*,#48,.T.);
#48 = EDGE_CURVE('',#41,#24,#49,.T.);
#49 = CIRCLE('',#50,3.55);
#50 = AXIS2_PLACEMENT_3D('',#51,#52,#53);
#51 = CARTESIAN_POINT('',(-9.4,11.,8.881784197001E-16));
#52 = DIRECTION('',(0.,-1.224646799147E-16,-1.));
#53 = DIRECTION('',(1.,0.,0.));
#54 = CYLINDRICAL_SURFACE('',#55,3.55);
#55 = AXIS2_PLACEMENT_3D('',#56,#57,#58);
#56 = CARTESIAN_POINT('',(-9.4,11.,4.8));
#57 = DIRECTION('',(-0.,1.224646799147E-16,1.));
#58 = DIRECTION('',(1.,0.,0.));
#59 = ADVANCED_FACE('',(#60),#85,.F.);
#60 = FACE_BOUND('',#61,.F.);
#61 = EDGE_LOOP('',(#62,#70,#71,#79));
#62 = ORIENTED_EDGE('',*,*,#63,.F.);
#63 = EDGE_CURVE('',#22,#64,#66,.T.);
#64 = VERTEX_POINT('',#65);
#65 = CARTESIAN_POINT('',(-7.3,14.55,4.8));
#66 = LINE('',#67,#68);
#67 = CARTESIAN_POINT('',(-9.4,14.55,4.8));
#68 = VECTOR('',#69,1.);
#69 = DIRECTION('',(1.,0.,0.));
#70 = ORIENTED_EDGE('',*,*,#21,.T.);
#71 = ORIENTED_EDGE('',*,*,#72,.T.);
#72 = EDGE_CURVE('',#24,#73,#75,.T.);
#73 = VERTEX_POINT('',#74);
#74 = CARTESIAN_POINT('',(-7.3,14.55,1.7763568394E-15));
#75 = LINE('',#76,#77);
#76 = CARTESIAN_POINT('',(-9.4,14.55,8.881784197001E-16));
#77 = VECTOR('',#78,1.);
#78 = DIRECTION('',(1.,0.,0.));
#79 = ORIENTED_EDGE('',*,*,#80,.T.);
#80 = EDGE_CURVE('',#73,#64,#81,.T.);
#81 = LINE('',#82,#83);
#82 = CARTESIAN_POINT('',(-7.3,14.55,5.3));
#83 = VECTOR('',#84,1.);
#84 = DIRECTION('',(0.,1.224646799147E-16,1.));
#85 = PLANE('',#86);
#86 = AXIS2_PLACEMENT_3D('',#87,#88,#89);
#87 = CARTESIAN_POINT('',(-9.4,14.55,4.8));
#88 = DIRECTION('',(0.,-1.,1.224646799147E-16));
#89 = DIRECTION('',(0.,-1.224646799147E-16,-1.));
#90 = ADVANCED_FACE('',(#91),#240,.T.);
#91 = FACE_BOUND('',#92,.T.);
#92 = EDGE_LOOP('',(#93,#101,#102,#103,#111,#119,#127,#135,#143,#151,
    #159,#167,#176,#184,#193,#201,#209,#217,#225,#233));
#93 = ORIENTED_EDGE('',*,*,#94,.F.);
#94 = EDGE_CURVE('',#41,#95,#97,.T.);
#95 = VERTEX_POINT('',#96);
#96 = CARTESIAN_POINT('',(-12.95,-11.,5.329070518201E-15));
#97 = LINE('',#98,#99);
#98 = CARTESIAN_POINT('',(-12.95,11.,8.881784197001E-16));
#99 = VECTOR('',#100,1.);
#100 = DIRECTION('',(0.,-1.,1.224646799147E-16));
#101 = ORIENTED_EDGE('',*,*,#48,.T.);
#102 = ORIENTED_EDGE('',*,*,#72,.T.);
#103 = ORIENTED_EDGE('',*,*,#104,.T.);
#104 = EDGE_CURVE('',#73,#105,#107,.T.);
#105 = VERTEX_POINT('',#106);
#106 = CARTESIAN_POINT('',(-7.3,11.,3.552713678801E-15));
#107 = LINE('',#108,#109);
#108 = CARTESIAN_POINT('',(-7.3,9.775,3.552713678801E-15));
#109 = VECTOR('',#110,1.);
#110 = DIRECTION('',(0.,-1.,1.224646799147E-16));
#111 = ORIENTED_EDGE('',*,*,#112,.T.);
#112 = EDGE_CURVE('',#105,#113,#115,.T.);
#113 = VERTEX_POINT('',#114);
#114 = CARTESIAN_POINT('',(-9.4,11.,3.552713678801E-15));
#115 = LINE('',#116,#117);
#116 = CARTESIAN_POINT('',(-4.7,11.,3.552713678801E-15));
#117 = VECTOR('',#118,1.);
#118 = DIRECTION('',(-1.,-0.,0.));
#119 = ORIENTED_EDGE('',*,*,#120,.T.);
#120 = EDGE_CURVE('',#113,#121,#123,.T.);
#121 = VERTEX_POINT('',#122);
#122 = CARTESIAN_POINT('',(-9.4,-11.,7.105427357601E-15));
#123 = LINE('',#124,#125);
#124 = CARTESIAN_POINT('',(-9.4,5.5,5.329070518201E-15));
#125 = VECTOR('',#126,1.);
#126 = DIRECTION('',(0.,-1.,1.224646799147E-16));
#127 = ORIENTED_EDGE('',*,*,#128,.F.);
#128 = EDGE_CURVE('',#129,#121,#131,.T.);
#129 = VERTEX_POINT('',#130);
#130 = CARTESIAN_POINT('',(9.4,-11.,7.105427357601E-15));
#131 = LINE('',#132,#133);
#132 = CARTESIAN_POINT('',(-4.7,-11.,7.105427357601E-15));
#133 = VECTOR('',#134,1.);
#134 = DIRECTION('',(-1.,-0.,0.));
#135 = ORIENTED_EDGE('',*,*,#136,.F.);
#136 = EDGE_CURVE('',#137,#129,#139,.T.);
#137 = VERTEX_POINT('',#138);
#138 = CARTESIAN_POINT('',(9.4,11.,3.552713678801E-15));
#139 = LINE('',#140,#141);
#140 = CARTESIAN_POINT('',(9.4,5.5,5.329070518201E-15));
#141 = VECTOR('',#142,1.);
#142 = DIRECTION('',(0.,-1.,1.224646799147E-16));
#143 = ORIENTED_EDGE('',*,*,#144,.T.);
#144 = EDGE_CURVE('',#137,#145,#147,.T.);
#145 = VERTEX_POINT('',#146);
#146 = CARTESIAN_POINT('',(7.3,11.,3.552713678801E-15));
#147 = LINE('',#148,#149);
#148 = CARTESIAN_POINT('',(-4.7,11.,3.552713678801E-15));
#149 = VECTOR('',#150,1.);
#150 = DIRECTION('',(-1.,-0.,0.));
#151 = ORIENTED_EDGE('',*,*,#152,.F.);
#152 = EDGE_CURVE('',#153,#145,#155,.T.);
#153 = VERTEX_POINT('',#154);
#154 = CARTESIAN_POINT('',(7.3,14.55,1.7763568394E-15));
#155 = LINE('',#156,#157);
#156 = CARTESIAN_POINT('',(7.3,9.775,3.552713678801E-15));
#157 = VECTOR('',#158,1.);
#158 = DIRECTION('',(0.,-1.,1.224646799147E-16));
#159 = ORIENTED_EDGE('',*,*,#160,.T.);
#160 = EDGE_CURVE('',#153,#161,#163,.T.);
#161 = VERTEX_POINT('',#162);
#162 = CARTESIAN_POINT('',(9.4,14.55,1.7763568394E-15));
#163 = LINE('',#164,#165);
#164 = CARTESIAN_POINT('',(-9.4,14.55,8.881784197001E-16));
#165 = VECTOR('',#166,1.);
#166 = DIRECTION('',(1.,0.,0.));
#167 = ORIENTED_EDGE('',*,*,#168,.T.);
#168 = EDGE_CURVE('',#161,#169,#171,.T.);
#169 = VERTEX_POINT('',#170);
#170 = CARTESIAN_POINT('',(12.95,11.,1.7763568394E-15));
#171 = CIRCLE('',#172,3.55);
#172 = AXIS2_PLACEMENT_3D('',#173,#174,#175);
#173 = CARTESIAN_POINT('',(9.4,11.,8.881784197001E-16));
#174 = DIRECTION('',(0.,-1.224646799147E-16,-1.));
#175 = DIRECTION('',(1.,0.,0.));
#176 = ORIENTED_EDGE('',*,*,#177,.T.);
#177 = EDGE_CURVE('',#169,#178,#180,.T.);
#178 = VERTEX_POINT('',#179);
#179 = CARTESIAN_POINT('',(12.95,-11.,7.105427357601E-15));
#180 = LINE('',#181,#182);
#181 = CARTESIAN_POINT('',(12.95,11.,8.881784197001E-16));
#182 = VECTOR('',#183,1.);
#183 = DIRECTION('',(0.,-1.,1.224646799147E-16));
#184 = ORIENTED_EDGE('',*,*,#185,.T.);
#185 = EDGE_CURVE('',#178,#186,#188,.T.);
#186 = VERTEX_POINT('',#187);
#187 = CARTESIAN_POINT('',(9.4,-14.55,5.329070518201E-15));
#188 = CIRCLE('',#189,3.55);
#189 = AXIS2_PLACEMENT_3D('',#190,#191,#192);
#190 = CARTESIAN_POINT('',(9.4,-11.,4.440892098501E-15));
#191 = DIRECTION('',(0.,-1.224646799147E-16,-1.));
#192 = DIRECTION('',(1.,0.,0.));
#193 = ORIENTED_EDGE('',*,*,#194,.F.);
#194 = EDGE_CURVE('',#195,#186,#197,.T.);
#195 = VERTEX_POINT('',#196);
#196 = CARTESIAN_POINT('',(4.,-14.55,5.329070518201E-15));
#197 = LINE('',#198,#199);
#198 = CARTESIAN_POINT('',(-9.4,-14.55,4.440892098501E-15));
#199 = VECTOR('',#200,1.);
#200 = DIRECTION('',(1.,0.,0.));
#201 = ORIENTED_EDGE('',*,*,#202,.F.);
#202 = EDGE_CURVE('',#203,#195,#205,.T.);
#203 = VERTEX_POINT('',#204);
#204 = CARTESIAN_POINT('',(4.,-11.55,7.105427357601E-15));
#205 = LINE('',#206,#207);
#206 = CARTESIAN_POINT('',(4.,-5.775,5.329070518201E-15));
#207 = VECTOR('',#208,1.);
#208 = DIRECTION('',(0.,-1.,1.224646799147E-16));
#209 = ORIENTED_EDGE('',*,*,#210,.T.);
#210 = EDGE_CURVE('',#203,#211,#213,.T.);
#211 = VERTEX_POINT('',#212);
#212 = CARTESIAN_POINT('',(-4.,-11.55,7.105427357601E-15));
#213 = LINE('',#214,#215);
#214 = CARTESIAN_POINT('',(-2.,-11.55,7.105427357601E-15));
#215 = VECTOR('',#216,1.);
#216 = DIRECTION('',(-1.,-0.,0.));
#217 = ORIENTED_EDGE('',*,*,#218,.T.);
#218 = EDGE_CURVE('',#211,#219,#221,.T.);
#219 = VERTEX_POINT('',#220);
#220 = CARTESIAN_POINT('',(-4.,-14.55,5.329070518201E-15));
#221 = LINE('',#222,#223);
#222 = CARTESIAN_POINT('',(-4.,-5.775,5.329070518201E-15));
#223 = VECTOR('',#224,1.);
#224 = DIRECTION('',(0.,-1.,1.224646799147E-16));
#225 = ORIENTED_EDGE('',*,*,#226,.F.);
#226 = EDGE_CURVE('',#227,#219,#229,.T.);
#227 = VERTEX_POINT('',#228);
#228 = CARTESIAN_POINT('',(-9.4,-14.55,5.329070518201E-15));
#229 = LINE('',#230,#231);
#230 = CARTESIAN_POINT('',(-9.4,-14.55,4.440892098501E-15));
#231 = VECTOR('',#232,1.);
#232 = DIRECTION('',(1.,0.,0.));
#233 = ORIENTED_EDGE('',*,*,#234,.T.);
#234 = EDGE_CURVE('',#227,#95,#235,.T.);
#235 = CIRCLE('',#236,3.55);
#236 = AXIS2_PLACEMENT_3D('',#237,#238,#239);
#237 = CARTESIAN_POINT('',(-9.4,-11.,4.440892098501E-15));
#238 = DIRECTION('',(0.,-1.224646799147E-16,-1.));
#239 = DIRECTION('',(1.,0.,0.));
#240 = PLANE('',#241);
#241 = AXIS2_PLACEMENT_3D('',#242,#243,#244);
#242 = CARTESIAN_POINT('',(0.,-8.231947613433E-16,5.329070518201E-15));
#243 = DIRECTION('',(0.,-1.224646799147E-16,-1.));
#244 = DIRECTION('',(1.,0.,0.));
#245 = ADVANCED_FACE('',(#246),#264,.F.);
#246 = FACE_BOUND('',#247,.F.);
#247 = EDGE_LOOP('',(#248,#249,#257,#263));
#248 = ORIENTED_EDGE('',*,*,#40,.F.);
#249 = ORIENTED_EDGE('',*,*,#250,.T.);
#250 = EDGE_CURVE('',#32,#251,#253,.T.);
#251 = VERTEX_POINT('',#252);
#252 = CARTESIAN_POINT('',(-12.95,-11.,4.8));
#253 = LINE('',#254,#255);
#254 = CARTESIAN_POINT('',(-12.95,11.,4.8));
#255 = VECTOR('',#256,1.);
#256 = DIRECTION('',(0.,-1.,1.224646799147E-16));
#257 = ORIENTED_EDGE('',*,*,#258,.T.);
#258 = EDGE_CURVE('',#251,#95,#259,.T.);
#259 = LINE('',#260,#261);
#260 = CARTESIAN_POINT('',(-12.95,-11.,4.8));
#261 = VECTOR('',#262,1.);
#262 = DIRECTION('',(0.,-1.224646799147E-16,-1.));
#263 = ORIENTED_EDGE('',*,*,#94,.F.);
#264 = PLANE('',#265);
#265 = AXIS2_PLACEMENT_3D('',#266,#267,#268);
#266 = CARTESIAN_POINT('',(-12.95,11.,4.8));
#267 = DIRECTION('',(1.,0.,0.));
#268 = DIRECTION('',(0.,-1.224646799147E-16,-1.));
#269 = ADVANCED_FACE('',(#270),#416,.T.);
#270 = FACE_BOUND('',#271,.T.);
#271 = EDGE_LOOP('',(#272,#273,#274,#283,#291,#300,#308,#317,#325,#333,
    #341,#350,#358,#367,#375,#384,#392,#401,#409,#415));
#272 = ORIENTED_EDGE('',*,*,#31,.F.);
#273 = ORIENTED_EDGE('',*,*,#250,.T.);
#274 = ORIENTED_EDGE('',*,*,#275,.F.);
#275 = EDGE_CURVE('',#276,#251,#278,.T.);
#276 = VERTEX_POINT('',#277);
#277 = CARTESIAN_POINT('',(-9.4,-14.55,4.8));
#278 = CIRCLE('',#279,3.55);
#279 = AXIS2_PLACEMENT_3D('',#280,#281,#282);
#280 = CARTESIAN_POINT('',(-9.4,-11.,4.8));
#281 = DIRECTION('',(0.,-1.224646799147E-16,-1.));
#282 = DIRECTION('',(1.,0.,0.));
#283 = ORIENTED_EDGE('',*,*,#284,.T.);
#284 = EDGE_CURVE('',#276,#285,#287,.T.);
#285 = VERTEX_POINT('',#286);
#286 = CARTESIAN_POINT('',(9.4,-14.55,4.8));
#287 = LINE('',#288,#289);
#288 = CARTESIAN_POINT('',(-9.4,-14.55,4.8));
#289 = VECTOR('',#290,1.);
#290 = DIRECTION('',(1.,0.,0.));
#291 = ORIENTED_EDGE('',*,*,#292,.F.);
#292 = EDGE_CURVE('',#293,#285,#295,.T.);
#293 = VERTEX_POINT('',#294);
#294 = CARTESIAN_POINT('',(12.95,-11.,4.8));
#295 = CIRCLE('',#296,3.55);
#296 = AXIS2_PLACEMENT_3D('',#297,#298,#299);
#297 = CARTESIAN_POINT('',(9.4,-11.,4.8));
#298 = DIRECTION('',(0.,-1.224646799147E-16,-1.));
#299 = DIRECTION('',(1.,0.,0.));
#300 = ORIENTED_EDGE('',*,*,#301,.F.);
#301 = EDGE_CURVE('',#302,#293,#304,.T.);
#302 = VERTEX_POINT('',#303);
#303 = CARTESIAN_POINT('',(12.95,11.,4.8));
#304 = LINE('',#305,#306);
#305 = CARTESIAN_POINT('',(12.95,11.,4.8));
#306 = VECTOR('',#307,1.);
#307 = DIRECTION('',(0.,-1.,1.224646799147E-16));
#308 = ORIENTED_EDGE('',*,*,#309,.F.);
#309 = EDGE_CURVE('',#310,#302,#312,.T.);
#310 = VERTEX_POINT('',#311);
#311 = CARTESIAN_POINT('',(9.4,14.55,4.8));
#312 = CIRCLE('',#313,3.55);
#313 = AXIS2_PLACEMENT_3D('',#314,#315,#316);
#314 = CARTESIAN_POINT('',(9.4,11.,4.8));
#315 = DIRECTION('',(0.,-1.224646799147E-16,-1.));
#316 = DIRECTION('',(1.,0.,0.));
#317 = ORIENTED_EDGE('',*,*,#318,.F.);
#318 = EDGE_CURVE('',#319,#310,#321,.T.);
#319 = VERTEX_POINT('',#320);
#320 = CARTESIAN_POINT('',(7.3,14.55,4.8));
#321 = LINE('',#322,#323);
#322 = CARTESIAN_POINT('',(-9.4,14.55,4.8));
#323 = VECTOR('',#324,1.);
#324 = DIRECTION('',(1.,0.,0.));
#325 = ORIENTED_EDGE('',*,*,#326,.F.);
#326 = EDGE_CURVE('',#327,#319,#329,.T.);
#327 = VERTEX_POINT('',#328);
#328 = CARTESIAN_POINT('',(7.3,12.95,4.8));
#329 = LINE('',#330,#331);
#330 = CARTESIAN_POINT('',(7.3,9.775,4.8));
#331 = VECTOR('',#332,1.);
#332 = DIRECTION('',(0.,1.,-1.224646799147E-16));
#333 = ORIENTED_EDGE('',*,*,#334,.T.);
#334 = EDGE_CURVE('',#327,#335,#337,.T.);
#335 = VERTEX_POINT('',#336);
#336 = CARTESIAN_POINT('',(9.4,12.95,4.8));
#337 = LINE('',#338,#339);
#338 = CARTESIAN_POINT('',(-4.7,12.95,4.8));
#339 = VECTOR('',#340,1.);
#340 = DIRECTION('',(1.,0.,0.));
#341 = ORIENTED_EDGE('',*,*,#342,.F.);
#342 = EDGE_CURVE('',#343,#335,#345,.T.);
#343 = VERTEX_POINT('',#344);
#344 = CARTESIAN_POINT('',(11.35,11.,4.8));
#345 = CIRCLE('',#346,1.95);
#346 = AXIS2_PLACEMENT_3D('',#347,#348,#349);
#347 = CARTESIAN_POINT('',(9.4,11.,4.8));
#348 = DIRECTION('',(-0.,1.224646799147E-16,1.));
#349 = DIRECTION('',(1.,0.,0.));
#350 = ORIENTED_EDGE('',*,*,#351,.F.);
#351 = EDGE_CURVE('',#352,#343,#354,.T.);
#352 = VERTEX_POINT('',#353);
#353 = CARTESIAN_POINT('',(11.35,-11.,4.8));
#354 = LINE('',#355,#356);
#355 = CARTESIAN_POINT('',(11.35,5.5,4.8));
#356 = VECTOR('',#357,1.);
#357 = DIRECTION('',(0.,1.,-1.224646799147E-16));
#358 = ORIENTED_EDGE('',*,*,#359,.F.);
#359 = EDGE_CURVE('',#360,#352,#362,.T.);
#360 = VERTEX_POINT('',#361);
#361 = CARTESIAN_POINT('',(9.4,-12.95,4.8));
#362 = CIRCLE('',#363,1.95);
#363 = AXIS2_PLACEMENT_3D('',#364,#365,#366);
#364 = CARTESIAN_POINT('',(9.4,-11.,4.8));
#365 = DIRECTION('',(-0.,1.224646799147E-16,1.));
#366 = DIRECTION('',(1.,0.,0.));
#367 = ORIENTED_EDGE('',*,*,#368,.F.);
#368 = EDGE_CURVE('',#369,#360,#371,.T.);
#369 = VERTEX_POINT('',#370);
#370 = CARTESIAN_POINT('',(-9.4,-12.95,4.8));
#371 = LINE('',#372,#373);
#372 = CARTESIAN_POINT('',(-4.7,-12.95,4.8));
#373 = VECTOR('',#374,1.);
#374 = DIRECTION('',(1.,0.,0.));
#375 = ORIENTED_EDGE('',*,*,#376,.F.);
#376 = EDGE_CURVE('',#377,#369,#379,.T.);
#377 = VERTEX_POINT('',#378);
#378 = CARTESIAN_POINT('',(-11.35,-11.,4.8));
#379 = CIRCLE('',#380,1.95);
#380 = AXIS2_PLACEMENT_3D('',#381,#382,#383);
#381 = CARTESIAN_POINT('',(-9.4,-11.,4.8));
#382 = DIRECTION('',(-0.,1.224646799147E-16,1.));
#383 = DIRECTION('',(1.,0.,0.));
#384 = ORIENTED_EDGE('',*,*,#385,.T.);
#385 = EDGE_CURVE('',#377,#386,#388,.T.);
#386 = VERTEX_POINT('',#387);
#387 = CARTESIAN_POINT('',(-11.35,11.,4.8));
#388 = LINE('',#389,#390);
#389 = CARTESIAN_POINT('',(-11.35,5.5,4.8));
#390 = VECTOR('',#391,1.);
#391 = DIRECTION('',(0.,1.,-1.224646799147E-16));
#392 = ORIENTED_EDGE('',*,*,#393,.F.);
#393 = EDGE_CURVE('',#394,#386,#396,.T.);
#394 = VERTEX_POINT('',#395);
#395 = CARTESIAN_POINT('',(-9.4,12.95,4.8));
#396 = CIRCLE('',#397,1.95);
#397 = AXIS2_PLACEMENT_3D('',#398,#399,#400);
#398 = CARTESIAN_POINT('',(-9.4,11.,4.8));
#399 = DIRECTION('',(-0.,1.224646799147E-16,1.));
#400 = DIRECTION('',(1.,0.,0.));
#401 = ORIENTED_EDGE('',*,*,#402,.T.);
#402 = EDGE_CURVE('',#394,#403,#405,.T.);
#403 = VERTEX_POINT('',#404);
#404 = CARTESIAN_POINT('',(-7.3,12.95,4.8));
#405 = LINE('',#406,#407);
#406 = CARTESIAN_POINT('',(-4.7,12.95,4.8));
#407 = VECTOR('',#408,1.);
#408 = DIRECTION('',(1.,0.,0.));
#409 = ORIENTED_EDGE('',*,*,#410,.T.);
#410 = EDGE_CURVE('',#403,#64,#411,.T.);
#411 = LINE('',#412,#413);
#412 = CARTESIAN_POINT('',(-7.3,9.775,4.8));
#413 = VECTOR('',#414,1.);
#414 = DIRECTION('',(0.,1.,-1.224646799147E-16));
#415 = ORIENTED_EDGE('',*,*,#63,.F.);
#416 = PLANE('',#417);
#417 = AXIS2_PLACEMENT_3D('',#418,#419,#420);
#418 = CARTESIAN_POINT('',(9.59716893978E-16,-7.837739514543E-16,4.8));
#419 = DIRECTION('',(-0.,1.224646799147E-16,1.));
#420 = DIRECTION('',(-1.,-0.,0.));
#421 = ADVANCED_FACE('',(#422),#449,.T.);
#422 = FACE_BOUND('',#423,.T.);
#423 = EDGE_LOOP('',(#424,#425,#426,#427,#435,#443));
#424 = ORIENTED_EDGE('',*,*,#104,.F.);
#425 = ORIENTED_EDGE('',*,*,#80,.T.);
#426 = ORIENTED_EDGE('',*,*,#410,.F.);
#427 = ORIENTED_EDGE('',*,*,#428,.F.);
#428 = EDGE_CURVE('',#429,#403,#431,.T.);
#429 = VERTEX_POINT('',#430);
#430 = CARTESIAN_POINT('',(-7.3,12.95,1.6));
#431 = LINE('',#432,#433);
#432 = CARTESIAN_POINT('',(-7.3,12.95,5.31));
#433 = VECTOR('',#434,1.);
#434 = DIRECTION('',(0.,1.224646799147E-16,1.));
#435 = ORIENTED_EDGE('',*,*,#436,.T.);
#436 = EDGE_CURVE('',#429,#437,#439,.T.);
#437 = VERTEX_POINT('',#438);
#438 = CARTESIAN_POINT('',(-7.3,11.,1.6));
#439 = LINE('',#440,#441);
#440 = CARTESIAN_POINT('',(-7.3,9.775,1.6));
#441 = VECTOR('',#442,1.);
#442 = DIRECTION('',(0.,-1.,1.224646799147E-16));
#443 = ORIENTED_EDGE('',*,*,#444,.F.);
#444 = EDGE_CURVE('',#105,#437,#445,.T.);
#445 = LINE('',#446,#447);
#446 = CARTESIAN_POINT('',(-7.3,11.,5.8));
#447 = VECTOR('',#448,1.);
#448 = DIRECTION('',(0.,1.224646799147E-16,1.));
#449 = PLANE('',#450);
#450 = AXIS2_PLACEMENT_3D('',#451,#452,#453);
#451 = CARTESIAN_POINT('',(-7.3,19.55,5.8));
#452 = DIRECTION('',(1.,0.,0.));
#453 = DIRECTION('',(0.,-1.224646799147E-16,-1.));
#454 = ADVANCED_FACE('',(#455),#466,.T.);
#455 = FACE_BOUND('',#456,.F.);
#456 = EDGE_LOOP('',(#457,#458,#464,#465));
#457 = ORIENTED_EDGE('',*,*,#275,.F.);
#458 = ORIENTED_EDGE('',*,*,#459,.T.);
#459 = EDGE_CURVE('',#276,#227,#460,.T.);
#460 = LINE('',#461,#462);
#461 = CARTESIAN_POINT('',(-9.4,-14.55,4.8));
#462 = VECTOR('',#463,1.);
#463 = DIRECTION('',(0.,-1.224646799147E-16,-1.));
#464 = ORIENTED_EDGE('',*,*,#234,.T.);
#465 = ORIENTED_EDGE('',*,*,#258,.F.);
#466 = CYLINDRICAL_SURFACE('',#467,3.55);
#467 = AXIS2_PLACEMENT_3D('',#468,#469,#470);
#468 = CARTESIAN_POINT('',(-9.4,-11.,4.8));
#469 = DIRECTION('',(-0.,1.224646799147E-16,1.));
#470 = DIRECTION('',(1.,0.,0.));
#471 = ADVANCED_FACE('',(#472),#506,.T.);
#472 = FACE_BOUND('',#473,.T.);
#473 = EDGE_LOOP('',(#474,#475,#476,#477,#485,#493,#499,#500));
#474 = ORIENTED_EDGE('',*,*,#284,.F.);
#475 = ORIENTED_EDGE('',*,*,#459,.T.);
#476 = ORIENTED_EDGE('',*,*,#226,.T.);
#477 = ORIENTED_EDGE('',*,*,#478,.T.);
#478 = EDGE_CURVE('',#219,#479,#481,.T.);
#479 = VERTEX_POINT('',#480);
#480 = CARTESIAN_POINT('',(-4.,-14.55,2.1));
#481 = LINE('',#482,#483);
#482 = CARTESIAN_POINT('',(-4.,-14.55,3.45));
#483 = VECTOR('',#484,1.);
#484 = DIRECTION('',(0.,1.224646799147E-16,1.));
#485 = ORIENTED_EDGE('',*,*,#486,.T.);
#486 = EDGE_CURVE('',#479,#487,#489,.T.);
#487 = VERTEX_POINT('',#488);
#488 = CARTESIAN_POINT('',(4.,-14.55,2.1));
#489 = LINE('',#490,#491);
#490 = CARTESIAN_POINT('',(-6.7,-14.55,2.1));
#491 = VECTOR('',#492,1.);
#492 = DIRECTION('',(1.,0.,0.));
#493 = ORIENTED_EDGE('',*,*,#494,.F.);
#494 = EDGE_CURVE('',#195,#487,#495,.T.);
#495 = LINE('',#496,#497);
#496 = CARTESIAN_POINT('',(4.,-14.55,3.45));
#497 = VECTOR('',#498,1.);
#498 = DIRECTION('',(0.,1.224646799147E-16,1.));
#499 = ORIENTED_EDGE('',*,*,#194,.T.);
#500 = ORIENTED_EDGE('',*,*,#501,.F.);
#501 = EDGE_CURVE('',#285,#186,#502,.T.);
#502 = LINE('',#503,#504);
#503 = CARTESIAN_POINT('',(9.4,-14.55,4.8));
#504 = VECTOR('',#505,1.);
#505 = DIRECTION('',(0.,-1.224646799147E-16,-1.));
#506 = PLANE('',#507);
#507 = AXIS2_PLACEMENT_3D('',#508,#509,#510);
#508 = CARTESIAN_POINT('',(-9.4,-14.55,4.8));
#509 = DIRECTION('',(0.,-1.,1.224646799147E-16));
#510 = DIRECTION('',(0.,-1.224646799147E-16,-1.));
#511 = ADVANCED_FACE('',(#512),#546,.T.);
#512 = FACE_BOUND('',#513,.T.);
#513 = EDGE_LOOP('',(#514,#522,#530,#538,#544,#545));
#514 = ORIENTED_EDGE('',*,*,#515,.F.);
#515 = EDGE_CURVE('',#516,#211,#518,.T.);
#516 = VERTEX_POINT('',#517);
#517 = CARTESIAN_POINT('',(-4.,-11.55,1.6));
#518 = LINE('',#519,#520);
#519 = CARTESIAN_POINT('',(-4.,-11.55,2.1));
#520 = VECTOR('',#521,1.);
#521 = DIRECTION('',(0.,-1.224646799147E-16,-1.));
#522 = ORIENTED_EDGE('',*,*,#523,.T.);
#523 = EDGE_CURVE('',#516,#524,#526,.T.);
#524 = VERTEX_POINT('',#525);
#525 = CARTESIAN_POINT('',(-4.,-12.95,1.6));
#526 = LINE('',#527,#528);
#527 = CARTESIAN_POINT('',(-4.,-5.775,1.6));
#528 = VECTOR('',#529,1.);
#529 = DIRECTION('',(0.,-1.,1.224646799147E-16));
#530 = ORIENTED_EDGE('',*,*,#531,.T.);
#531 = EDGE_CURVE('',#524,#532,#534,.T.);
#532 = VERTEX_POINT('',#533);
#533 = CARTESIAN_POINT('',(-4.,-12.95,2.1));
#534 = LINE('',#535,#536);
#535 = CARTESIAN_POINT('',(-4.,-12.95,3.46));
#536 = VECTOR('',#537,1.);
#537 = DIRECTION('',(0.,1.224646799147E-16,1.));
#538 = ORIENTED_EDGE('',*,*,#539,.T.);
#539 = EDGE_CURVE('',#532,#479,#540,.T.);
#540 = LINE('',#541,#542);
#541 = CARTESIAN_POINT('',(-4.,-11.55,2.1));
#542 = VECTOR('',#543,1.);
#543 = DIRECTION('',(0.,-1.,1.224646799147E-16));
#544 = ORIENTED_EDGE('',*,*,#478,.F.);
#545 = ORIENTED_EDGE('',*,*,#218,.F.);
#546 = PLANE('',#547);
#547 = AXIS2_PLACEMENT_3D('',#548,#549,#550);
#548 = CARTESIAN_POINT('',(-4.,-11.55,2.1));
#549 = DIRECTION('',(1.,0.,0.));
#550 = DIRECTION('',(0.,-1.224646799147E-16,-1.));
#551 = ADVANCED_FACE('',(#552),#570,.T.);
#552 = FACE_BOUND('',#553,.T.);
#553 = EDGE_LOOP('',(#554,#562,#568,#569));
#554 = ORIENTED_EDGE('',*,*,#555,.F.);
#555 = EDGE_CURVE('',#556,#203,#558,.T.);
#556 = VERTEX_POINT('',#557);
#557 = CARTESIAN_POINT('',(4.,-11.55,1.6));
#558 = LINE('',#559,#560);
#559 = CARTESIAN_POINT('',(4.,-11.55,2.1));
#560 = VECTOR('',#561,1.);
#561 = DIRECTION('',(0.,-1.224646799147E-16,-1.));
#562 = ORIENTED_EDGE('',*,*,#563,.T.);
#563 = EDGE_CURVE('',#556,#516,#564,.T.);
#564 = LINE('',#565,#566);
#565 = CARTESIAN_POINT('',(-2.,-11.55,1.6));
#566 = VECTOR('',#567,1.);
#567 = DIRECTION('',(-1.,-0.,0.));
#568 = ORIENTED_EDGE('',*,*,#515,.T.);
#569 = ORIENTED_EDGE('',*,*,#210,.F.);
#570 = PLANE('',#571);
#571 = AXIS2_PLACEMENT_3D('',#572,#573,#574);
#572 = CARTESIAN_POINT('',(-4.,-11.55,2.1));
#573 = DIRECTION('',(0.,-1.,1.224646799147E-16));
#574 = DIRECTION('',(0.,-1.224646799147E-16,-1.));
#575 = ADVANCED_FACE('',(#576),#603,.F.);
#576 = FACE_BOUND('',#577,.F.);
#577 = EDGE_LOOP('',(#578,#579,#587,#595,#601,#602));
#578 = ORIENTED_EDGE('',*,*,#555,.F.);
#579 = ORIENTED_EDGE('',*,*,#580,.T.);
#580 = EDGE_CURVE('',#556,#581,#583,.T.);
#581 = VERTEX_POINT('',#582);
#582 = CARTESIAN_POINT('',(4.,-12.95,1.6));
#583 = LINE('',#584,#585);
#584 = CARTESIAN_POINT('',(4.,-5.775,1.6));
#585 = VECTOR('',#586,1.);
#586 = DIRECTION('',(0.,-1.,1.224646799147E-16));
#587 = ORIENTED_EDGE('',*,*,#588,.T.);
#588 = EDGE_CURVE('',#581,#589,#591,.T.);
#589 = VERTEX_POINT('',#590);
#590 = CARTESIAN_POINT('',(4.,-12.95,2.1));
#591 = LINE('',#592,#593);
#592 = CARTESIAN_POINT('',(4.,-12.95,3.46));
#593 = VECTOR('',#594,1.);
#594 = DIRECTION('',(0.,1.224646799147E-16,1.));
#595 = ORIENTED_EDGE('',*,*,#596,.T.);
#596 = EDGE_CURVE('',#589,#487,#597,.T.);
#597 = LINE('',#598,#599);
#598 = CARTESIAN_POINT('',(4.,-11.55,2.1));
#599 = VECTOR('',#600,1.);
#600 = DIRECTION('',(0.,-1.,1.224646799147E-16));
#601 = ORIENTED_EDGE('',*,*,#494,.F.);
#602 = ORIENTED_EDGE('',*,*,#202,.F.);
#603 = PLANE('',#604);
#604 = AXIS2_PLACEMENT_3D('',#605,#606,#607);
#605 = CARTESIAN_POINT('',(4.,-11.55,2.1));
#606 = DIRECTION('',(1.,0.,0.));
#607 = DIRECTION('',(0.,-1.224646799147E-16,-1.));
#608 = ADVANCED_FACE('',(#609),#620,.T.);
#609 = FACE_BOUND('',#610,.F.);
#610 = EDGE_LOOP('',(#611,#612,#618,#619));
#611 = ORIENTED_EDGE('',*,*,#292,.F.);
#612 = ORIENTED_EDGE('',*,*,#613,.T.);
#613 = EDGE_CURVE('',#293,#178,#614,.T.);
#614 = LINE('',#615,#616);
#615 = CARTESIAN_POINT('',(12.95,-11.,4.8));
#616 = VECTOR('',#617,1.);
#617 = DIRECTION('',(0.,-1.224646799147E-16,-1.));
#618 = ORIENTED_EDGE('',*,*,#185,.T.);
#619 = ORIENTED_EDGE('',*,*,#501,.F.);
#620 = CYLINDRICAL_SURFACE('',#621,3.55);
#621 = AXIS2_PLACEMENT_3D('',#622,#623,#624);
#622 = CARTESIAN_POINT('',(9.4,-11.,4.8));
#623 = DIRECTION('',(-0.,1.224646799147E-16,1.));
#624 = DIRECTION('',(1.,0.,0.));
#625 = ADVANCED_FACE('',(#626),#637,.T.);
#626 = FACE_BOUND('',#627,.T.);
#627 = EDGE_LOOP('',(#628,#634,#635,#636));
#628 = ORIENTED_EDGE('',*,*,#629,.F.);
#629 = EDGE_CURVE('',#302,#169,#630,.T.);
#630 = LINE('',#631,#632);
#631 = CARTESIAN_POINT('',(12.95,11.,4.8));
#632 = VECTOR('',#633,1.);
#633 = DIRECTION('',(0.,-1.224646799147E-16,-1.));
#634 = ORIENTED_EDGE('',*,*,#301,.T.);
#635 = ORIENTED_EDGE('',*,*,#613,.T.);
#636 = ORIENTED_EDGE('',*,*,#177,.F.);
#637 = PLANE('',#638);
#638 = AXIS2_PLACEMENT_3D('',#639,#640,#641);
#639 = CARTESIAN_POINT('',(12.95,11.,4.8));
#640 = DIRECTION('',(1.,0.,0.));
#641 = DIRECTION('',(0.,-1.224646799147E-16,-1.));
#642 = ADVANCED_FACE('',(#643),#654,.T.);
#643 = FACE_BOUND('',#644,.F.);
#644 = EDGE_LOOP('',(#645,#646,#647,#653));
#645 = ORIENTED_EDGE('',*,*,#629,.F.);
#646 = ORIENTED_EDGE('',*,*,#309,.F.);
#647 = ORIENTED_EDGE('',*,*,#648,.T.);
#648 = EDGE_CURVE('',#310,#161,#649,.T.);
#649 = LINE('',#650,#651);
#650 = CARTESIAN_POINT('',(9.4,14.55,4.8));
#651 = VECTOR('',#652,1.);
#652 = DIRECTION('',(0.,-1.224646799147E-16,-1.));
#653 = ORIENTED_EDGE('',*,*,#168,.T.);
#654 = CYLINDRICAL_SURFACE('',#655,3.55);
#655 = AXIS2_PLACEMENT_3D('',#656,#657,#658);
#656 = CARTESIAN_POINT('',(9.4,11.,4.8));
#657 = DIRECTION('',(-0.,1.224646799147E-16,1.));
#658 = DIRECTION('',(1.,0.,0.));
#659 = ADVANCED_FACE('',(#660),#671,.F.);
#660 = FACE_BOUND('',#661,.F.);
#661 = EDGE_LOOP('',(#662,#663,#669,#670));
#662 = ORIENTED_EDGE('',*,*,#318,.F.);
#663 = ORIENTED_EDGE('',*,*,#664,.F.);
#664 = EDGE_CURVE('',#153,#319,#665,.T.);
#665 = LINE('',#666,#667);
#666 = CARTESIAN_POINT('',(7.3,14.55,5.3));
#667 = VECTOR('',#668,1.);
#668 = DIRECTION('',(0.,1.224646799147E-16,1.));
#669 = ORIENTED_EDGE('',*,*,#160,.T.);
#670 = ORIENTED_EDGE('',*,*,#648,.F.);
#671 = PLANE('',#672);
#672 = AXIS2_PLACEMENT_3D('',#673,#674,#675);
#673 = CARTESIAN_POINT('',(-9.4,14.55,4.8));
#674 = DIRECTION('',(0.,-1.,1.224646799147E-16));
#675 = DIRECTION('',(0.,-1.224646799147E-16,-1.));
#676 = ADVANCED_FACE('',(#677),#704,.F.);
#677 = FACE_BOUND('',#678,.F.);
#678 = EDGE_LOOP('',(#679,#680,#681,#682,#690,#698));
#679 = ORIENTED_EDGE('',*,*,#152,.F.);
#680 = ORIENTED_EDGE('',*,*,#664,.T.);
#681 = ORIENTED_EDGE('',*,*,#326,.F.);
#682 = ORIENTED_EDGE('',*,*,#683,.F.);
#683 = EDGE_CURVE('',#684,#327,#686,.T.);
#684 = VERTEX_POINT('',#685);
#685 = CARTESIAN_POINT('',(7.3,12.95,1.6));
#686 = LINE('',#687,#688);
#687 = CARTESIAN_POINT('',(7.3,12.95,5.31));
#688 = VECTOR('',#689,1.);
#689 = DIRECTION('',(0.,1.224646799147E-16,1.));
#690 = ORIENTED_EDGE('',*,*,#691,.T.);
#691 = EDGE_CURVE('',#684,#692,#694,.T.);
#692 = VERTEX_POINT('',#693);
#693 = CARTESIAN_POINT('',(7.3,11.,1.6));
#694 = LINE('',#695,#696);
#695 = CARTESIAN_POINT('',(7.3,9.775,1.6));
#696 = VECTOR('',#697,1.);
#697 = DIRECTION('',(0.,-1.,1.224646799147E-16));
#698 = ORIENTED_EDGE('',*,*,#699,.F.);
#699 = EDGE_CURVE('',#145,#692,#700,.T.);
#700 = LINE('',#701,#702);
#701 = CARTESIAN_POINT('',(7.3,11.,5.8));
#702 = VECTOR('',#703,1.);
#703 = DIRECTION('',(0.,1.224646799147E-16,1.));
#704 = PLANE('',#705);
#705 = AXIS2_PLACEMENT_3D('',#706,#707,#708);
#706 = CARTESIAN_POINT('',(7.3,19.55,5.8));
#707 = DIRECTION('',(1.,0.,0.));
#708 = DIRECTION('',(0.,-1.224646799147E-16,-1.));
#709 = ADVANCED_FACE('',(#710),#728,.T.);
#710 = FACE_BOUND('',#711,.T.);
#711 = EDGE_LOOP('',(#712,#720,#726,#727));
#712 = ORIENTED_EDGE('',*,*,#713,.F.);
#713 = EDGE_CURVE('',#714,#137,#716,.T.);
#714 = VERTEX_POINT('',#715);
#715 = CARTESIAN_POINT('',(9.4,11.,1.6));
#716 = LINE('',#717,#718);
#717 = CARTESIAN_POINT('',(9.4,11.,5.8));
#718 = VECTOR('',#719,1.);
#719 = DIRECTION('',(0.,-1.224646799147E-16,-1.));
#720 = ORIENTED_EDGE('',*,*,#721,.T.);
#721 = EDGE_CURVE('',#714,#692,#722,.T.);
#722 = LINE('',#723,#724);
#723 = CARTESIAN_POINT('',(-4.7,11.,1.6));
#724 = VECTOR('',#725,1.);
#725 = DIRECTION('',(-1.,-0.,0.));
#726 = ORIENTED_EDGE('',*,*,#699,.F.);
#727 = ORIENTED_EDGE('',*,*,#144,.F.);
#728 = PLANE('',#729);
#729 = AXIS2_PLACEMENT_3D('',#730,#731,#732);
#730 = CARTESIAN_POINT('',(-9.4,11.,5.8));
#731 = DIRECTION('',(0.,-1.,1.224646799147E-16));
#732 = DIRECTION('',(0.,-1.224646799147E-16,-1.));
#733 = ADVANCED_FACE('',(#734),#752,.F.);
#734 = FACE_BOUND('',#735,.F.);
#735 = EDGE_LOOP('',(#736,#737,#745,#751));
#736 = ORIENTED_EDGE('',*,*,#713,.F.);
#737 = ORIENTED_EDGE('',*,*,#738,.T.);
#738 = EDGE_CURVE('',#714,#739,#741,.T.);
#739 = VERTEX_POINT('',#740);
#740 = CARTESIAN_POINT('',(9.4,-11.,1.6));
#741 = LINE('',#742,#743);
#742 = CARTESIAN_POINT('',(9.4,5.5,1.6));
#743 = VECTOR('',#744,1.);
#744 = DIRECTION('',(0.,-1.,1.224646799147E-16));
#745 = ORIENTED_EDGE('',*,*,#746,.T.);
#746 = EDGE_CURVE('',#739,#129,#747,.T.);
#747 = LINE('',#748,#749);
#748 = CARTESIAN_POINT('',(9.4,-11.,5.8));
#749 = VECTOR('',#750,1.);
#750 = DIRECTION('',(0.,-1.224646799147E-16,-1.));
#751 = ORIENTED_EDGE('',*,*,#136,.F.);
#752 = PLANE('',#753);
#753 = AXIS2_PLACEMENT_3D('',#754,#755,#756);
#754 = CARTESIAN_POINT('',(9.4,11.,5.8));
#755 = DIRECTION('',(1.,0.,0.));
#756 = DIRECTION('',(0.,-1.224646799147E-16,-1.));
#757 = ADVANCED_FACE('',(#758),#776,.F.);
#758 = FACE_BOUND('',#759,.F.);
#759 = EDGE_LOOP('',(#760,#761,#769,#775));
#760 = ORIENTED_EDGE('',*,*,#746,.F.);
#761 = ORIENTED_EDGE('',*,*,#762,.T.);
#762 = EDGE_CURVE('',#739,#763,#765,.T.);
#763 = VERTEX_POINT('',#764);
#764 = CARTESIAN_POINT('',(-9.4,-11.,1.6));
#765 = LINE('',#766,#767);
#766 = CARTESIAN_POINT('',(-4.7,-11.,1.6));
#767 = VECTOR('',#768,1.);
#768 = DIRECTION('',(-1.,-0.,0.));
#769 = ORIENTED_EDGE('',*,*,#770,.T.);
#770 = EDGE_CURVE('',#763,#121,#771,.T.);
#771 = LINE('',#772,#773);
#772 = CARTESIAN_POINT('',(-9.4,-11.,5.8));
#773 = VECTOR('',#774,1.);
#774 = DIRECTION('',(0.,-1.224646799147E-16,-1.));
#775 = ORIENTED_EDGE('',*,*,#128,.F.);
#776 = PLANE('',#777);
#777 = AXIS2_PLACEMENT_3D('',#778,#779,#780);
#778 = CARTESIAN_POINT('',(-9.4,-11.,5.8));
#779 = DIRECTION('',(0.,-1.,1.224646799147E-16));
#780 = DIRECTION('',(0.,-1.224646799147E-16,-1.));
#781 = ADVANCED_FACE('',(#782),#800,.T.);
#782 = FACE_BOUND('',#783,.T.);
#783 = EDGE_LOOP('',(#784,#792,#798,#799));
#784 = ORIENTED_EDGE('',*,*,#785,.F.);
#785 = EDGE_CURVE('',#786,#113,#788,.T.);
#786 = VERTEX_POINT('',#787);
#787 = CARTESIAN_POINT('',(-9.4,11.,1.6));
#788 = LINE('',#789,#790);
#789 = CARTESIAN_POINT('',(-9.4,11.,5.8));
#790 = VECTOR('',#791,1.);
#791 = DIRECTION('',(0.,-1.224646799147E-16,-1.));
#792 = ORIENTED_EDGE('',*,*,#793,.T.);
#793 = EDGE_CURVE('',#786,#763,#794,.T.);
#794 = LINE('',#795,#796);
#795 = CARTESIAN_POINT('',(-9.4,5.5,1.6));
#796 = VECTOR('',#797,1.);
#797 = DIRECTION('',(0.,-1.,1.224646799147E-16));
#798 = ORIENTED_EDGE('',*,*,#770,.T.);
#799 = ORIENTED_EDGE('',*,*,#120,.F.);
#800 = PLANE('',#801);
#801 = AXIS2_PLACEMENT_3D('',#802,#803,#804);
#802 = CARTESIAN_POINT('',(-9.4,11.,5.8));
#803 = DIRECTION('',(1.,0.,0.));
#804 = DIRECTION('',(0.,-1.224646799147E-16,-1.));
#805 = ADVANCED_FACE('',(#806),#817,.T.);
#806 = FACE_BOUND('',#807,.T.);
#807 = EDGE_LOOP('',(#808,#809,#815,#816));
#808 = ORIENTED_EDGE('',*,*,#444,.T.);
#809 = ORIENTED_EDGE('',*,*,#810,.T.);
#810 = EDGE_CURVE('',#437,#786,#811,.T.);
#811 = LINE('',#812,#813);
#812 = CARTESIAN_POINT('',(-4.7,11.,1.6));
#813 = VECTOR('',#814,1.);
#814 = DIRECTION('',(-1.,-0.,0.));
#815 = ORIENTED_EDGE('',*,*,#785,.T.);
#816 = ORIENTED_EDGE('',*,*,#112,.F.);
#817 = PLANE('',#818);
#818 = AXIS2_PLACEMENT_3D('',#819,#820,#821);
#819 = CARTESIAN_POINT('',(-9.4,11.,5.8));
#820 = DIRECTION('',(0.,-1.,1.224646799147E-16));
#821 = DIRECTION('',(0.,-1.224646799147E-16,-1.));
#822 = ADVANCED_FACE('',(#823),#841,.T.);
#823 = FACE_BOUND('',#824,.T.);
#824 = EDGE_LOOP('',(#825,#826,#834,#840));
#825 = ORIENTED_EDGE('',*,*,#402,.F.);
#826 = ORIENTED_EDGE('',*,*,#827,.T.);
#827 = EDGE_CURVE('',#394,#828,#830,.T.);
#828 = VERTEX_POINT('',#829);
#829 = CARTESIAN_POINT('',(-9.4,12.95,1.6));
#830 = LINE('',#831,#832);
#831 = CARTESIAN_POINT('',(-9.4,12.95,4.82));
#832 = VECTOR('',#833,1.);
#833 = DIRECTION('',(0.,-1.224646799147E-16,-1.));
#834 = ORIENTED_EDGE('',*,*,#835,.T.);
#835 = EDGE_CURVE('',#828,#429,#836,.T.);
#836 = LINE('',#837,#838);
#837 = CARTESIAN_POINT('',(-9.4,12.95,1.6));
#838 = VECTOR('',#839,1.);
#839 = DIRECTION('',(1.,0.,0.));
#840 = ORIENTED_EDGE('',*,*,#428,.T.);
#841 = PLANE('',#842);
#842 = AXIS2_PLACEMENT_3D('',#843,#844,#845);
#843 = CARTESIAN_POINT('',(-9.4,12.95,4.82));
#844 = DIRECTION('',(0.,-1.,1.224646799147E-16));
#845 = DIRECTION('',(0.,-1.224646799147E-16,-1.));
#846 = ADVANCED_FACE('',(#847),#866,.F.);
#847 = FACE_BOUND('',#848,.T.);
#848 = EDGE_LOOP('',(#849,#850,#851,#859));
#849 = ORIENTED_EDGE('',*,*,#827,.F.);
#850 = ORIENTED_EDGE('',*,*,#393,.T.);
#851 = ORIENTED_EDGE('',*,*,#852,.T.);
#852 = EDGE_CURVE('',#386,#853,#855,.T.);
#853 = VERTEX_POINT('',#854);
#854 = CARTESIAN_POINT('',(-11.35,11.,1.6));
#855 = LINE('',#856,#857);
#856 = CARTESIAN_POINT('',(-11.35,11.,4.82));
#857 = VECTOR('',#858,1.);
#858 = DIRECTION('',(0.,-1.224646799147E-16,-1.));
#859 = ORIENTED_EDGE('',*,*,#860,.T.);
#860 = EDGE_CURVE('',#853,#828,#861,.T.);
#861 = CIRCLE('',#862,1.95);
#862 = AXIS2_PLACEMENT_3D('',#863,#864,#865);
#863 = CARTESIAN_POINT('',(-9.4,11.,1.6));
#864 = DIRECTION('',(0.,-1.224646799147E-16,-1.));
#865 = DIRECTION('',(1.,0.,0.));
#866 = CYLINDRICAL_SURFACE('',#867,1.95);
#867 = AXIS2_PLACEMENT_3D('',#868,#869,#870);
#868 = CARTESIAN_POINT('',(-9.4,11.,4.82));
#869 = DIRECTION('',(-0.,1.224646799147E-16,1.));
#870 = DIRECTION('',(1.,0.,0.));
#871 = ADVANCED_FACE('',(#872),#890,.T.);
#872 = FACE_BOUND('',#873,.T.);
#873 = EDGE_LOOP('',(#874,#875,#876,#884));
#874 = ORIENTED_EDGE('',*,*,#852,.F.);
#875 = ORIENTED_EDGE('',*,*,#385,.F.);
#876 = ORIENTED_EDGE('',*,*,#877,.T.);
#877 = EDGE_CURVE('',#377,#878,#880,.T.);
#878 = VERTEX_POINT('',#879);
#879 = CARTESIAN_POINT('',(-11.35,-11.,1.6));
#880 = LINE('',#881,#882);
#881 = CARTESIAN_POINT('',(-11.35,-11.,4.82));
#882 = VECTOR('',#883,1.);
#883 = DIRECTION('',(0.,-1.224646799147E-16,-1.));
#884 = ORIENTED_EDGE('',*,*,#885,.F.);
#885 = EDGE_CURVE('',#853,#878,#886,.T.);
#886 = LINE('',#887,#888);
#887 = CARTESIAN_POINT('',(-11.35,11.,1.6));
#888 = VECTOR('',#889,1.);
#889 = DIRECTION('',(0.,-1.,1.224646799147E-16));
#890 = PLANE('',#891);
#891 = AXIS2_PLACEMENT_3D('',#892,#893,#894);
#892 = CARTESIAN_POINT('',(-11.35,11.,4.82));
#893 = DIRECTION('',(1.,0.,0.));
#894 = DIRECTION('',(0.,-1.224646799147E-16,-1.));
#895 = ADVANCED_FACE('',(#896),#915,.F.);
#896 = FACE_BOUND('',#897,.T.);
#897 = EDGE_LOOP('',(#898,#899,#907,#914));
#898 = ORIENTED_EDGE('',*,*,#376,.T.);
#899 = ORIENTED_EDGE('',*,*,#900,.T.);
#900 = EDGE_CURVE('',#369,#901,#903,.T.);
#901 = VERTEX_POINT('',#902);
#902 = CARTESIAN_POINT('',(-9.4,-12.95,1.6));
#903 = LINE('',#904,#905);
#904 = CARTESIAN_POINT('',(-9.4,-12.95,4.82));
#905 = VECTOR('',#906,1.);
#906 = DIRECTION('',(0.,-1.224646799147E-16,-1.));
#907 = ORIENTED_EDGE('',*,*,#908,.T.);
#908 = EDGE_CURVE('',#901,#878,#909,.T.);
#909 = CIRCLE('',#910,1.95);
#910 = AXIS2_PLACEMENT_3D('',#911,#912,#913);
#911 = CARTESIAN_POINT('',(-9.4,-11.,1.6));
#912 = DIRECTION('',(0.,-1.224646799147E-16,-1.));
#913 = DIRECTION('',(1.,0.,0.));
#914 = ORIENTED_EDGE('',*,*,#877,.F.);
#915 = CYLINDRICAL_SURFACE('',#916,1.95);
#916 = AXIS2_PLACEMENT_3D('',#917,#918,#919);
#917 = CARTESIAN_POINT('',(-9.4,-11.,4.82));
#918 = DIRECTION('',(-0.,1.224646799147E-16,1.));
#919 = DIRECTION('',(1.,0.,0.));
#920 = ADVANCED_FACE('',(#921),#953,.F.);
#921 = FACE_BOUND('',#922,.F.);
#922 = EDGE_LOOP('',(#923,#924,#925,#931,#932,#938,#939,#947));
#923 = ORIENTED_EDGE('',*,*,#368,.F.);
#924 = ORIENTED_EDGE('',*,*,#900,.T.);
#925 = ORIENTED_EDGE('',*,*,#926,.T.);
#926 = EDGE_CURVE('',#901,#524,#927,.T.);
#927 = LINE('',#928,#929);
#928 = CARTESIAN_POINT('',(-9.4,-12.95,1.6));
#929 = VECTOR('',#930,1.);
#930 = DIRECTION('',(1.,0.,0.));
#931 = ORIENTED_EDGE('',*,*,#531,.T.);
#932 = ORIENTED_EDGE('',*,*,#933,.T.);
#933 = EDGE_CURVE('',#532,#589,#934,.T.);
#934 = LINE('',#935,#936);
#935 = CARTESIAN_POINT('',(-6.7,-12.95,2.1));
#936 = VECTOR('',#937,1.);
#937 = DIRECTION('',(1.,0.,0.));
#938 = ORIENTED_EDGE('',*,*,#588,.F.);
#939 = ORIENTED_EDGE('',*,*,#940,.T.);
#940 = EDGE_CURVE('',#581,#941,#943,.T.);
#941 = VERTEX_POINT('',#942);
#942 = CARTESIAN_POINT('',(9.4,-12.95,1.6));
#943 = LINE('',#944,#945);
#944 = CARTESIAN_POINT('',(-9.4,-12.95,1.6));
#945 = VECTOR('',#946,1.);
#946 = DIRECTION('',(1.,0.,0.));
#947 = ORIENTED_EDGE('',*,*,#948,.F.);
#948 = EDGE_CURVE('',#360,#941,#949,.T.);
#949 = LINE('',#950,#951);
#950 = CARTESIAN_POINT('',(9.4,-12.95,4.82));
#951 = VECTOR('',#952,1.);
#952 = DIRECTION('',(0.,-1.224646799147E-16,-1.));
#953 = PLANE('',#954);
#954 = AXIS2_PLACEMENT_3D('',#955,#956,#957);
#955 = CARTESIAN_POINT('',(-9.4,-12.95,4.82));
#956 = DIRECTION('',(0.,-1.,1.224646799147E-16));
#957 = DIRECTION('',(0.,-1.224646799147E-16,-1.));
#958 = ADVANCED_FACE('',(#959),#978,.F.);
#959 = FACE_BOUND('',#960,.T.);
#960 = EDGE_LOOP('',(#961,#962,#970,#977));
#961 = ORIENTED_EDGE('',*,*,#359,.T.);
#962 = ORIENTED_EDGE('',*,*,#963,.T.);
#963 = EDGE_CURVE('',#352,#964,#966,.T.);
#964 = VERTEX_POINT('',#965);
#965 = CARTESIAN_POINT('',(11.35,-11.,1.6));
#966 = LINE('',#967,#968);
#967 = CARTESIAN_POINT('',(11.35,-11.,4.82));
#968 = VECTOR('',#969,1.);
#969 = DIRECTION('',(0.,-1.224646799147E-16,-1.));
#970 = ORIENTED_EDGE('',*,*,#971,.T.);
#971 = EDGE_CURVE('',#964,#941,#972,.T.);
#972 = CIRCLE('',#973,1.95);
#973 = AXIS2_PLACEMENT_3D('',#974,#975,#976);
#974 = CARTESIAN_POINT('',(9.4,-11.,1.6));
#975 = DIRECTION('',(0.,-1.224646799147E-16,-1.));
#976 = DIRECTION('',(1.,0.,0.));
#977 = ORIENTED_EDGE('',*,*,#948,.F.);
#978 = CYLINDRICAL_SURFACE('',#979,1.95);
#979 = AXIS2_PLACEMENT_3D('',#980,#981,#982);
#980 = CARTESIAN_POINT('',(9.4,-11.,4.82));
#981 = DIRECTION('',(-0.,1.224646799147E-16,1.));
#982 = DIRECTION('',(1.,0.,0.));
#983 = ADVANCED_FACE('',(#984),#1002,.F.);
#984 = FACE_BOUND('',#985,.F.);
#985 = EDGE_LOOP('',(#986,#994,#995,#996));
#986 = ORIENTED_EDGE('',*,*,#987,.F.);
#987 = EDGE_CURVE('',#343,#988,#990,.T.);
#988 = VERTEX_POINT('',#989);
#989 = CARTESIAN_POINT('',(11.35,11.,1.6));
#990 = LINE('',#991,#992);
#991 = CARTESIAN_POINT('',(11.35,11.,4.82));
#992 = VECTOR('',#993,1.);
#993 = DIRECTION('',(0.,-1.224646799147E-16,-1.));
#994 = ORIENTED_EDGE('',*,*,#351,.F.);
#995 = ORIENTED_EDGE('',*,*,#963,.T.);
#996 = ORIENTED_EDGE('',*,*,#997,.F.);
#997 = EDGE_CURVE('',#988,#964,#998,.T.);
#998 = LINE('',#999,#1000);
#999 = CARTESIAN_POINT('',(11.35,11.,1.6));
#1000 = VECTOR('',#1001,1.);
#1001 = DIRECTION('',(0.,-1.,1.224646799147E-16));
#1002 = PLANE('',#1003);
#1003 = AXIS2_PLACEMENT_3D('',#1004,#1005,#1006);
#1004 = CARTESIAN_POINT('',(11.35,11.,4.82));
#1005 = DIRECTION('',(1.,0.,0.));
#1006 = DIRECTION('',(0.,-1.224646799147E-16,-1.));
#1007 = ADVANCED_FACE('',(#1008),#1027,.F.);
#1008 = FACE_BOUND('',#1009,.T.);
#1009 = EDGE_LOOP('',(#1010,#1019,#1020,#1021));
#1010 = ORIENTED_EDGE('',*,*,#1011,.T.);
#1011 = EDGE_CURVE('',#1012,#988,#1014,.T.);
#1012 = VERTEX_POINT('',#1013);
#1013 = CARTESIAN_POINT('',(9.4,12.95,1.6));
#1014 = CIRCLE('',#1015,1.95);
#1015 = AXIS2_PLACEMENT_3D('',#1016,#1017,#1018);
#1016 = CARTESIAN_POINT('',(9.4,11.,1.6));
#1017 = DIRECTION('',(0.,-1.224646799147E-16,-1.));
#1018 = DIRECTION('',(1.,0.,0.));
#1019 = ORIENTED_EDGE('',*,*,#987,.F.);
#1020 = ORIENTED_EDGE('',*,*,#342,.T.);
#1021 = ORIENTED_EDGE('',*,*,#1022,.T.);
#1022 = EDGE_CURVE('',#335,#1012,#1023,.T.);
#1023 = LINE('',#1024,#1025);
#1024 = CARTESIAN_POINT('',(9.4,12.95,4.82));
#1025 = VECTOR('',#1026,1.);
#1026 = DIRECTION('',(0.,-1.224646799147E-16,-1.));
#1027 = CYLINDRICAL_SURFACE('',#1028,1.95);
#1028 = AXIS2_PLACEMENT_3D('',#1029,#1030,#1031);
#1029 = CARTESIAN_POINT('',(9.4,11.,4.82));
#1030 = DIRECTION('',(-0.,1.224646799147E-16,1.));
#1031 = DIRECTION('',(1.,0.,0.));
#1032 = ADVANCED_FACE('',(#1033),#1044,.T.);
#1033 = FACE_BOUND('',#1034,.T.);
#1034 = EDGE_LOOP('',(#1035,#1036,#1037,#1043));
#1035 = ORIENTED_EDGE('',*,*,#334,.F.);
#1036 = ORIENTED_EDGE('',*,*,#683,.F.);
#1037 = ORIENTED_EDGE('',*,*,#1038,.T.);
#1038 = EDGE_CURVE('',#684,#1012,#1039,.T.);
#1039 = LINE('',#1040,#1041);
#1040 = CARTESIAN_POINT('',(-9.4,12.95,1.6));
#1041 = VECTOR('',#1042,1.);
#1042 = DIRECTION('',(1.,0.,0.));
#1043 = ORIENTED_EDGE('',*,*,#1022,.F.);
#1044 = PLANE('',#1045);
#1045 = AXIS2_PLACEMENT_3D('',#1046,#1047,#1048);
#1046 = CARTESIAN_POINT('',(-9.4,12.95,4.82));
#1047 = DIRECTION('',(0.,-1.,1.224646799147E-16));
#1048 = DIRECTION('',(0.,-1.224646799147E-16,-1.));
#1049 = ADVANCED_FACE('',(#1050),#1072,.F.);
#1050 = FACE_BOUND('',#1051,.F.);
#1051 = EDGE_LOOP('',(#1052,#1053,#1054,#1055,#1056,#1057,#1058,#1059,
    #1060,#1061,#1062,#1063,#1064,#1065,#1066,#1067,#1068,#1069,#1070,
    #1071));
#1052 = ORIENTED_EDGE('',*,*,#885,.F.);
#1053 = ORIENTED_EDGE('',*,*,#860,.T.);
#1054 = ORIENTED_EDGE('',*,*,#835,.T.);
#1055 = ORIENTED_EDGE('',*,*,#436,.T.);
#1056 = ORIENTED_EDGE('',*,*,#810,.T.);
#1057 = ORIENTED_EDGE('',*,*,#793,.T.);
#1058 = ORIENTED_EDGE('',*,*,#762,.F.);
#1059 = ORIENTED_EDGE('',*,*,#738,.F.);
#1060 = ORIENTED_EDGE('',*,*,#721,.T.);
#1061 = ORIENTED_EDGE('',*,*,#691,.F.);
#1062 = ORIENTED_EDGE('',*,*,#1038,.T.);
#1063 = ORIENTED_EDGE('',*,*,#1011,.T.);
#1064 = ORIENTED_EDGE('',*,*,#997,.T.);
#1065 = ORIENTED_EDGE('',*,*,#971,.T.);
#1066 = ORIENTED_EDGE('',*,*,#940,.F.);
#1067 = ORIENTED_EDGE('',*,*,#580,.F.);
#1068 = ORIENTED_EDGE('',*,*,#563,.T.);
#1069 = ORIENTED_EDGE('',*,*,#523,.T.);
#1070 = ORIENTED_EDGE('',*,*,#926,.F.);
#1071 = ORIENTED_EDGE('',*,*,#908,.T.);
#1072 = PLANE('',#1073);
#1073 = AXIS2_PLACEMENT_3D('',#1074,#1075,#1076);
#1074 = CARTESIAN_POINT('',(-3.032854664767E-16,-1.024018193943E-15,1.6)
  );
#1075 = DIRECTION('',(0.,-1.224646799147E-16,-1.));
#1076 = DIRECTION('',(1.,0.,0.));
#1077 = ADVANCED_FACE('',(#1078),#1084,.T.);
#1078 = FACE_BOUND('',#1079,.T.);
#1079 = EDGE_LOOP('',(#1080,#1081,#1082,#1083));
#1080 = ORIENTED_EDGE('',*,*,#539,.F.);
#1081 = ORIENTED_EDGE('',*,*,#933,.T.);
#1082 = ORIENTED_EDGE('',*,*,#596,.T.);
#1083 = ORIENTED_EDGE('',*,*,#486,.F.);
#1084 = PLANE('',#1085);
#1085 = AXIS2_PLACEMENT_3D('',#1086,#1087,#1088);
#1086 = CARTESIAN_POINT('',(-4.,-11.55,2.1));
#1087 = DIRECTION('',(0.,-1.224646799147E-16,-1.));
#1088 = DIRECTION('',(1.,0.,0.));
#1089 = ( GEOMETRIC_REPRESENTATION_CONTEXT(3)
GLOBAL_UNCERTAINTY_ASSIGNED_CONTEXT((#1093))
GLOBAL_UNIT_ASSIGNED_CONTEXT((#1090,#1091,#1092)) REPRESENTATION_CONTEXT
('Context #1','3D Context with UNIT and UNCERTAINTY') );
#1090 = ( LENGTH_UNIT() NAMED_UNIT(*) SI_UNIT(.MILLI.,.METRE.) );
#1091 = ( NAMED_UNIT(*) PLANE_ANGLE_UNIT() SI_UNIT($,.RADIAN.) );
#1092 = ( NAMED_UNIT(*) SI_UNIT($,.STERADIAN.) SOLID_ANGLE_UNIT() );
#1093 = UNCERTAINTY_MEASURE_WITH_UNIT(LENGTH_MEASURE(1.E-05),#1090,
  'distance_accuracy_value','confusion accuracy');
#1094 = PRODUCT_RELATED_PRODUCT_CATEGORY('part',$,(#7));
ENDSEC;
END-ISO-10303-21;
