ISO-10303-21;
HEADER;
FILE_DESCRIPTION(('FreeCAD Model'),'2;1');
FILE_NAME('Open CASCADE Shape Model','2026-10-01T23:00:28',('FreeCAD'),(
    'FreeCAD'),'Open CASCADE STEP processor 7.8','FreeCAD','Unknown');
FILE_SCHEMA(('AUTOMOTIVE_DESIGN { 1 0 10303 214 1 1 1 1 }'));
ENDSEC;
DATA;
#1 = APPLICATION_PROTOCOL_DEFINITION('international standard',
  'automotive_design',2000,#2);
#2 = APPLICATION_CONTEXT(
  'core data for automotive mechanical design processes');
#3 = SHAPE_DEFINITION_REPRESENTATION(#4,#10);
#4 = PRODUCT_DEFINITION_SHAPE('','',#5);
#5 = PRODUCT_DEFINITION('design','',#6,#9);
#6 = PRODUCT_DEFINITION_FORMATION('','',#7);
#7 = PRODUCT('Open CASCADE STEP translator 7.8 2',
  'Open CASCADE STEP translator 7.8 2','',(#8));
#8 = PRODUCT_CONTEXT('',#2,'mechanical');
#9 = PRODUCT_DEFINITION_CONTEXT('part definition',#2,'design');
#10 = ADVANCED_BREP_SHAPE_REPRESENTATION('',(#11,#15),#907);
#11 = AXIS2_PLACEMENT_3D('',#12,#13,#14);
#12 = CARTESIAN_POINT('',(0.,0.,0.));
#13 = DIRECTION('',(0.,0.,1.));
#14 = DIRECTION('',(1.,0.,-0.));
#15 = MANIFOLD_SOLID_BREP('',#16);
#16 = CLOSED_SHELL('',(#17,#59,#90,#213,#237,#389,#422,#439,#456,#473,
    #490,#507,#524,#557,#581,#605,#629,#653,#670,#694,#719,#743,#768,
    #792,#817,#841,#866,#883));
#17 = ADVANCED_FACE('',(#18),#54,.T.);
#18 = FACE_BOUND('',#19,.F.);
#19 = EDGE_LOOP('',(#20,#30,#39,#47));
#20 = ORIENTED_EDGE('',*,*,#21,.F.);
#21 = EDGE_CURVE('',#22,#24,#26,.T.);
#22 = VERTEX_POINT('',#23);
#23 = CARTESIAN_POINT('',(-9.4,14.55,4.8));
#24 = VERTEX_POINT('',#25);
#25 = CARTESIAN_POINT('',(-9.4,14.55,-1.7763568394E-15));
#26 = LINE('',#27,#28);
#27 = CARTESIAN_POINT('',(-9.4,14.55,4.8));
#28 = VECTOR('',#29,1.);
#29 = DIRECTION('',(0.,-1.224646799147E-16,-1.));
#30 = ORIENTED_EDGE('',*,*,#31,.F.);
#31 = EDGE_CURVE('',#32,#22,#34,.T.);
#32 = VERTEX_POINT('',#33);
#33 = CARTESIAN_POINT('',(-12.95,11.,4.8));
#34 = CIRCLE('',#35,3.55);
#35 = AXIS2_PLACEMENT_3D('',#36,#37,#38);
#36 = CARTESIAN_POINT('',(-9.4,11.,4.8));
#37 = DIRECTION('',(0.,-1.224646799147E-16,-1.));
#38 = DIRECTION('',(1.,0.,0.));
#39 = ORIENTED_EDGE('',*,*,#40,.T.);
#40 = EDGE_CURVE('',#32,#41,#43,.T.);
#41 = VERTEX_POINT('',#42);
#42 = CARTESIAN_POINT('',(-12.95,11.,-1.7763568394E-15));
#43 = LINE('',#44,#45);
#44 = CARTESIAN_POINT('',(-12.95,11.,4.8));
#45 = VECTOR('',#46,1.);
#46 = DIRECTION('',(0.,-1.224646799147E-16,-1.));
#47 = ORIENTED_EDGE('',*,*,#48,.T.);
#48 = EDGE_CURVE('',#41,#24,#49,.T.);
#49 = CIRCLE('',#50,3.55);
#50 = AXIS2_PLACEMENT_3D('',#51,#52,#53);
#51 = CARTESIAN_POINT('',(-9.4,11.,-8.881784197001E-16));
#52 = DIRECTION('',(0.,-1.224646799147E-16,-1.));
#53 = DIRECTION('',(1.,0.,0.));
#54 = CYLINDRICAL_SURFACE('',#55,3.55);
#55 = AXIS2_PLACEMENT_3D('',#56,#57,#58);
#56 = CARTESIAN_POINT('',(-9.4,11.,4.8));
#57 = DIRECTION('',(-0.,1.224646799147E-16,1.));
#58 = DIRECTION('',(1.,0.,0.));
#59 = ADVANCED_FACE('',(#60),#85,.F.);
#60 = FACE_BOUND('',#61,.F.);
#61 = EDGE_LOOP('',(#62,#70,#71,#79));
#62 = ORIENTED_EDGE('',*,*,#63,.F.);
#63 = EDGE_CURVE('',#22,#64,#66,.T.);
#64 = VERTEX_POINT('',#65);
#65 = CARTESIAN_POINT('',(-7.3,14.55,4.8));
#66 = LINE('',#67,#68);
#67 = CARTESIAN_POINT('',(-9.4,14.55,4.8));
#68 = VECTOR('',#69,1.);
#69 = DIRECTION('',(1.,0.,0.));
#70 = ORIENTED_EDGE('',*,*,#21,.T.);
#71 = ORIENTED_EDGE('',*,*,#72,.T.);
#72 = EDGE_CURVE('',#24,#73,#75,.T.);
#73 = VERTEX_POINT('',#74);
#74 = CARTESIAN_POINT('',(-7.3,14.55,-1.7763568394E-15));
#75 = LINE('',#76,#77);
#76 = CARTESIAN_POINT('',(-9.4,14.55,-8.881784197001E-16));
#77 = VECTOR('',#78,1.);
#78 = DIRECTION('',(1.,0.,0.));
#79 = ORIENTED_EDGE('',*,*,#80,.T.);
#80 = EDGE_CURVE('',#73,#64,#81,.T.);
#81 = LINE('',#82,#83);
#82 = CARTESIAN_POINT('',(-7.3,14.55,5.3));
#83 = VECTOR('',#84,1.);
#84 = DIRECTION('',(0.,1.224646799147E-16,1.));
#85 = PLANE('',#86);
#86 = AXIS2_PLACEMENT_3D('',#87,#88,#89);
#87 = CARTESIAN_POINT('',(-9.4,14.55,4.8));
#88 = DIRECTION('',(0.,-1.,1.224646799147E-16));
#89 = DIRECTION('',(0.,-1.224646799147E-16,-1.));
#90 = ADVANCED_FACE('',(#91),#208,.T.);
#91 = FACE_BOUND('',#92,.T.);
#92 = EDGE_LOOP('',(#93,#101,#102,#103,#111,#119,#127,#135,#143,#151,
    #159,#167,#176,#184,#193,#201));
#93 = ORIENTED_EDGE('',*,*,#94,.F.);
#94 = EDGE_CURVE('',#41,#95,#97,.T.);
#95 = VERTEX_POINT('',#96);
#96 = CARTESIAN_POINT('',(-12.95,-11.,1.7763568394E-15));
#97 = LINE('',#98,#99);
#98 = CARTESIAN_POINT('',(-12.95,11.,-8.881784197001E-16));
#99 = VECTOR('',#100,1.);
#100 = DIRECTION('',(0.,-1.,1.224646799147E-16));
#101 = ORIENTED_EDGE('',*,*,#48,.T.);
#102 = ORIENTED_EDGE('',*,*,#72,.T.);
#103 = ORIENTED_EDGE('',*,*,#104,.T.);
#104 = EDGE_CURVE('',#73,#105,#107,.T.);
#105 = VERTEX_POINT('',#106);
#106 = CARTESIAN_POINT('',(-7.3,11.,1.7763568394E-15));
#107 = LINE('',#108,#109);
#108 = CARTESIAN_POINT('',(-7.3,9.775,1.7763568394E-15));
#109 = VECTOR('',#110,1.);
#110 = DIRECTION('',(0.,-1.,1.224646799147E-16));
#111 = ORIENTED_EDGE('',*,*,#112,.T.);
#112 = EDGE_CURVE('',#105,#113,#115,.T.);
#113 = VERTEX_POINT('',#114);
#114 = CARTESIAN_POINT('',(-9.4,11.,1.7763568394E-15));
#115 = LINE('',#116,#117);
#116 = CARTESIAN_POINT('',(-4.7,11.,1.7763568394E-15));
#117 = VECTOR('',#118,1.);
#118 = DIRECTION('',(-1.,-0.,0.));
#119 = ORIENTED_EDGE('',*,*,#120,.T.);
#120 = EDGE_CURVE('',#113,#121,#123,.T.);
#121 = VERTEX_POINT('',#122);
#122 = CARTESIAN_POINT('',(-9.4,-11.,5.329070518201E-15));
#123 = LINE('',#124,#125);
#124 = CARTESIAN_POINT('',(-9.4,5.5,3.552713678801E-15));
#125 = VECTOR('',#126,1.);
#126 = DIRECTION('',(0.,-1.,1.224646799147E-16));
#127 = ORIENTED_EDGE('',*,*,#128,.F.);
#128 = EDGE_CURVE('',#129,#121,#131,.T.);
#129 = VERTEX_POINT('',#130);
#130 = CARTESIAN_POINT('',(9.4,-11.,5.329070518201E-15));
#131 = LINE('',#132,#133);
#132 = CARTESIAN_POINT('',(-4.7,-11.,5.329070518201E-15));
#133 = VECTOR('',#134,1.);
#134 = DIRECTION('',(-1.,-0.,0.));
#135 = ORIENTED_EDGE('',*,*,#136,.F.);
#136 = EDGE_CURVE('',#137,#129,#139,.T.);
#137 = VERTEX_POINT('',#138);
#138 = CARTESIAN_POINT('',(9.4,11.,1.7763568394E-15));
#139 = LINE('',#140,#141);
#140 = CARTESIAN_POINT('',(9.4,5.5,3.552713678801E-15));
#141 = VECTOR('',#142,1.);
#142 = DIRECTION('',(0.,-1.,1.224646799147E-16));
#143 = ORIENTED_EDGE('',*,*,#144,.T.);
#144 = EDGE_CURVE('',#137,#145,#147,.T.);
#145 = VERTEX_POINT('',#146);
#146 = CARTESIAN_POINT('',(7.3,11.,1.7763568394E-15));
#147 = LINE('',#148,#149);
#148 = CARTESIAN_POINT('',(-4.7,11.,1.7763568394E-15));
#149 = VECTOR('',#150,1.);
#150 = DIRECTION('',(-1.,-0.,0.));
#151 = ORIENTED_EDGE('',*,*,#152,.F.);
#152 = EDGE_CURVE('',#153,#145,#155,.T.);
#153 = VERTEX_POINT('',#154);
#154 = CARTESIAN_POINT('',(7.3,14.55,-1.7763568394E-15));
#155 = LINE('',#156,#157);
#156 = CARTESIAN_POINT('',(7.3,9.775,1.7763568394E-15));
#157 = VECTOR('',#158,1.);
#158 = DIRECTION('',(0.,-1.,1.224646799147E-16));
#159 = ORIENTED_EDGE('',*,*,#160,.T.);
#160 = EDGE_CURVE('',#153,#161,#163,.T.);
#161 = VERTEX_POINT('',#162);
#162 = CARTESIAN_POINT('',(9.4,14.55,-1.7763568394E-15));
#163 = LINE('',#164,#165);
#164 = CARTESIAN_POINT('',(-9.4,14.55,-8.881784197001E-16));
#165 = VECTOR('',#166,1.);
#166 = DIRECTION('',(1.,0.,0.));
#167 = ORIENTED_EDGE('',*,*,#168,.T.);
#168 = EDGE_CURVE('',#161,#169,#171,.T.);
#169 = VERTEX_POINT('',#170);
#170 = CARTESIAN_POINT('',(12.95,11.,-1.7763568394E-15));
#171 = CIRCLE('',#172,3.55);
#172 = AXIS2_PLACEMENT_3D('',#173,#174,#175);
#173 = CARTESIAN_POINT('',(9.4,11.,-8.881784197001E-16));
#174 = DIRECTION('',(0.,-1.224646799147E-16,-1.));
#175 = DIRECTION('',(1.,0.,0.));
#176 = ORIENTED_EDGE('',*,*,#177,.T.);
#177 = EDGE_CURVE('',#169,#178,#180,.T.);
#178 = VERTEX_POINT('',#179);
#179 = CARTESIAN_POINT('',(12.95,-11.,1.7763568394E-15));
#180 = LINE('',#181,#182);
#181 = CARTESIAN_POINT('',(12.95,11.,-8.881784197001E-16));
#182 = VECTOR('',#183,1.);
#183 = DIRECTION('',(0.,-1.,1.224646799147E-16));
#184 = ORIENTED_EDGE('',*,*,#185,.T.);
#185 = EDGE_CURVE('',#178,#186,#188,.T.);
#186 = VERTEX_POINT('',#187);
#187 = CARTESIAN_POINT('',(9.4,-14.55,1.7763568394E-15));
#188 = CIRCLE('',#189,3.55);
#189 = AXIS2_PLACEMENT_3D('',#190,#191,#192);
#190 = CARTESIAN_POINT('',(9.4,-11.,2.6645352591E-15));
#191 = DIRECTION('',(0.,-1.224646799147E-16,-1.));
#192 = DIRECTION('',(1.,0.,0.));
#193 = ORIENTED_EDGE('',*,*,#194,.F.);
#194 = EDGE_CURVE('',#195,#186,#197,.T.);
#195 = VERTEX_POINT('',#196);
#196 = CARTESIAN_POINT('',(-9.4,-14.55,1.7763568394E-15));
#197 = LINE('',#198,#199);
#198 = CARTESIAN_POINT('',(-9.4,-14.55,2.6645352591E-15));
#199 = VECTOR('',#200,1.);
#200 = DIRECTION('',(1.,0.,0.));
#201 = ORIENTED_EDGE('',*,*,#202,.T.);
#202 = EDGE_CURVE('',#195,#95,#203,.T.);
#203 = CIRCLE('',#204,3.55);
#204 = AXIS2_PLACEMENT_3D('',#205,#206,#207);
#205 = CARTESIAN_POINT('',(-9.4,-11.,2.6645352591E-15));
#206 = DIRECTION('',(0.,-1.224646799147E-16,-1.));
#207 = DIRECTION('',(1.,0.,0.));
#208 = PLANE('',#209);
#209 = AXIS2_PLACEMENT_3D('',#210,#211,#212);
#210 = CARTESIAN_POINT('',(0.,-7.252230174115E-16,3.552713678801E-15));
#211 = DIRECTION('',(0.,-1.224646799147E-16,-1.));
#212 = DIRECTION('',(1.,0.,0.));
#213 = ADVANCED_FACE('',(#214),#232,.F.);
#214 = FACE_BOUND('',#215,.F.);
#215 = EDGE_LOOP('',(#216,#217,#225,#231));
#216 = ORIENTED_EDGE('',*,*,#40,.F.);
#217 = ORIENTED_EDGE('',*,*,#218,.T.);
#218 = EDGE_CURVE('',#32,#219,#221,.T.);
#219 = VERTEX_POINT('',#220);
#220 = CARTESIAN_POINT('',(-12.95,-11.,4.8));
#221 = LINE('',#222,#223);
#222 = CARTESIAN_POINT('',(-12.95,11.,4.8));
#223 = VECTOR('',#224,1.);
#224 = DIRECTION('',(0.,-1.,1.224646799147E-16));
#225 = ORIENTED_EDGE('',*,*,#226,.T.);
#226 = EDGE_CURVE('',#219,#95,#227,.T.);
#227 = LINE('',#228,#229);
#228 = CARTESIAN_POINT('',(-12.95,-11.,4.8));
#229 = VECTOR('',#230,1.);
#230 = DIRECTION('',(0.,-1.224646799147E-16,-1.));
#231 = ORIENTED_EDGE('',*,*,#94,.F.);
#232 = PLANE('',#233);
#233 = AXIS2_PLACEMENT_3D('',#234,#235,#236);
#234 = CARTESIAN_POINT('',(-12.95,11.,4.8));
#235 = DIRECTION('',(1.,0.,0.));
#236 = DIRECTION('',(0.,-1.224646799147E-16,-1.));
#237 = ADVANCED_FACE('',(#238),#384,.T.);
#238 = FACE_BOUND('',#239,.T.);
#239 = EDGE_LOOP('',(#240,#241,#242,#251,#259,#268,#276,#285,#293,#301,
    #309,#318,#326,#335,#343,#352,#360,#369,#377,#383));
#240 = ORIENTED_EDGE('',*,*,#31,.F.);
#241 = ORIENTED_EDGE('',*,*,#218,.T.);
#242 = ORIENTED_EDGE('',*,*,#243,.F.);
#243 = EDGE_CURVE('',#244,#219,#246,.T.);
#244 = VERTEX_POINT('',#245);
#245 = CARTESIAN_POINT('',(-9.4,-14.55,4.8));
#246 = CIRCLE('',#247,3.55);
#247 = AXIS2_PLACEMENT_3D('',#248,#249,#250);
#248 = CARTESIAN_POINT('',(-9.4,-11.,4.8));
#249 = DIRECTION('',(0.,-1.224646799147E-16,-1.));
#250 = DIRECTION('',(1.,0.,0.));
#251 = ORIENTED_EDGE('',*,*,#252,.T.);
#252 = EDGE_CURVE('',#244,#253,#255,.T.);
#253 = VERTEX_POINT('',#254);
#254 = CARTESIAN_POINT('',(9.4,-14.55,4.8));
#255 = LINE('',#256,#257);
#256 = CARTESIAN_POINT('',(-9.4,-14.55,4.8));
#257 = VECTOR('',#258,1.);
#258 = DIRECTION('',(1.,0.,0.));
#259 = ORIENTED_EDGE('',*,*,#260,.F.);
#260 = EDGE_CURVE('',#261,#253,#263,.T.);
#261 = VERTEX_POINT('',#262);
#262 = CARTESIAN_POINT('',(12.95,-11.,4.8));
#263 = CIRCLE('',#264,3.55);
#264 = AXIS2_PLACEMENT_3D('',#265,#266,#267);
#265 = CARTESIAN_POINT('',(9.4,-11.,4.8));
#266 = DIRECTION('',(0.,-1.224646799147E-16,-1.));
#267 = DIRECTION('',(1.,0.,0.));
#268 = ORIENTED_EDGE('',*,*,#269,.F.);
#269 = EDGE_CURVE('',#270,#261,#272,.T.);
#270 = VERTEX_POINT('',#271);
#271 = CARTESIAN_POINT('',(12.95,11.,4.8));
#272 = LINE('',#273,#274);
#273 = CARTESIAN_POINT('',(12.95,11.,4.8));
#274 = VECTOR('',#275,1.);
#275 = DIRECTION('',(0.,-1.,1.224646799147E-16));
#276 = ORIENTED_EDGE('',*,*,#277,.F.);
#277 = EDGE_CURVE('',#278,#270,#280,.T.);
#278 = VERTEX_POINT('',#279);
#279 = CARTESIAN_POINT('',(9.4,14.55,4.8));
#280 = CIRCLE('',#281,3.55);
#281 = AXIS2_PLACEMENT_3D('',#282,#283,#284);
#282 = CARTESIAN_POINT('',(9.4,11.,4.8));
#283 = DIRECTION('',(0.,-1.224646799147E-16,-1.));
#284 = DIRECTION('',(1.,0.,0.));
#285 = ORIENTED_EDGE('',*,*,#286,.F.);
#286 = EDGE_CURVE('',#287,#278,#289,.T.);
#287 = VERTEX_POINT('',#288);
#288 = CARTESIAN_POINT('',(7.3,14.55,4.8));
#289 = LINE('',#290,#291);
#290 = CARTESIAN_POINT('',(-9.4,14.55,4.8));
#291 = VECTOR('',#292,1.);
#292 = DIRECTION('',(1.,0.,0.));
#293 = ORIENTED_EDGE('',*,*,#294,.F.);
#294 = EDGE_CURVE('',#295,#287,#297,.T.);
#295 = VERTEX_POINT('',#296);
#296 = CARTESIAN_POINT('',(7.3,12.95,4.8));
#297 = LINE('',#298,#299);
#298 = CARTESIAN_POINT('',(7.3,9.775,4.8));
#299 = VECTOR('',#300,1.);
#300 = DIRECTION('',(0.,1.,-1.224646799147E-16));
#301 = ORIENTED_EDGE('',*,*,#302,.T.);
#302 = EDGE_CURVE('',#295,#303,#305,.T.);
#303 = VERTEX_POINT('',#304);
#304 = CARTESIAN_POINT('',(9.4,12.95,4.8));
#305 = LINE('',#306,#307);
#306 = CARTESIAN_POINT('',(-4.7,12.95,4.8));
#307 = VECTOR('',#308,1.);
#308 = DIRECTION('',(1.,0.,0.));
#309 = ORIENTED_EDGE('',*,*,#310,.F.);
#310 = EDGE_CURVE('',#311,#303,#313,.T.);
#311 = VERTEX_POINT('',#312);
#312 = CARTESIAN_POINT('',(11.35,11.,4.8));
#313 = CIRCLE('',#314,1.95);
#314 = AXIS2_PLACEMENT_3D('',#315,#316,#317);
#315 = CARTESIAN_POINT('',(9.4,11.,4.8));
#316 = DIRECTION('',(-0.,1.224646799147E-16,1.));
#317 = DIRECTION('',(1.,0.,0.));
#318 = ORIENTED_EDGE('',*,*,#319,.F.);
#319 = EDGE_CURVE('',#320,#311,#322,.T.);
#320 = VERTEX_POINT('',#321);
#321 = CARTESIAN_POINT('',(11.35,-11.,4.8));
#322 = LINE('',#323,#324);
#323 = CARTESIAN_POINT('',(11.35,5.5,4.8));
#324 = VECTOR('',#325,1.);
#325 = DIRECTION('',(0.,1.,-1.224646799147E-16));
#326 = ORIENTED_EDGE('',*,*,#327,.F.);
#327 = EDGE_CURVE('',#328,#320,#330,.T.);
#328 = VERTEX_POINT('',#329);
#329 = CARTESIAN_POINT('',(9.4,-12.95,4.8));
#330 = CIRCLE('',#331,1.95);
#331 = AXIS2_PLACEMENT_3D('',#332,#333,#334);
#332 = CARTESIAN_POINT('',(9.4,-11.,4.8));
#333 = DIRECTION('',(-0.,1.224646799147E-16,1.));
#334 = DIRECTION('',(1.,0.,0.));
#335 = ORIENTED_EDGE('',*,*,#336,.F.);
#336 = EDGE_CURVE('',#337,#328,#339,.T.);
#337 = VERTEX_POINT('',#338);
#338 = CARTESIAN_POINT('',(-9.4,-12.95,4.8));
#339 = LINE('',#340,#341);
#340 = CARTESIAN_POINT('',(-4.7,-12.95,4.8));
#341 = VECTOR('',#342,1.);
#342 = DIRECTION('',(1.,0.,0.));
#343 = ORIENTED_EDGE('',*,*,#344,.F.);
#344 = EDGE_CURVE('',#345,#337,#347,.T.);
#345 = VERTEX_POINT('',#346);
#346 = CARTESIAN_POINT('',(-11.35,-11.,4.8));
#347 = CIRCLE('',#348,1.95);
#348 = AXIS2_PLACEMENT_3D('',#349,#350,#351);
#349 = CARTESIAN_POINT('',(-9.4,-11.,4.8));
#350 = DIRECTION('',(-0.,1.224646799147E-16,1.));
#351 = DIRECTION('',(1.,0.,0.));
#352 = ORIENTED_EDGE('',*,*,#353,.T.);
#353 = EDGE_CURVE('',#345,#354,#356,.T.);
#354 = VERTEX_POINT('',#355);
#355 = CARTESIAN_POINT('',(-11.35,11.,4.8));
#356 = LINE('',#357,#358);
#357 = CARTESIAN_POINT('',(-11.35,5.5,4.8));
#358 = VECTOR('',#359,1.);
#359 = DIRECTION('',(0.,1.,-1.224646799147E-16));
#360 = ORIENTED_EDGE('',*,*,#361,.F.);
#361 = EDGE_CURVE('',#362,#354,#364,.T.);
#362 = VERTEX_POINT('',#363);
#363 = CARTESIAN_POINT('',(-9.4,12.95,4.8));
#364 = CIRCLE('',#365,1.95);
#365 = AXIS2_PLACEMENT_3D('',#366,#367,#368);
#366 = CARTESIAN_POINT('',(-9.4,11.,4.8));
#367 = DIRECTION('',(-0.,1.224646799147E-16,1.));
#368 = DIRECTION('',(1.,0.,0.));
#369 = ORIENTED_EDGE('',*,*,#370,.T.);
#370 = EDGE_CURVE('',#362,#371,#373,.T.);
#371 = VERTEX_POINT('',#372);
#372 = CARTESIAN_POINT('',(-7.3,12.95,4.8));
#373 = LINE('',#374,#375);
#374 = CARTESIAN_POINT('',(-4.7,12.95,4.8));
#375 = VECTOR('',#376,1.);
#376 = DIRECTION('',(1.,0.,0.));
#377 = ORIENTED_EDGE('',*,*,#378,.T.);
#378 = EDGE_CURVE('',#371,#64,#379,.T.);
#379 = LINE('',#380,#381);
#380 = CARTESIAN_POINT('',(-7.3,9.775,4.8));
#381 = VECTOR('',#382,1.);
#382 = DIRECTION('',(0.,1.,-1.224646799147E-16));
#383 = ORIENTED_EDGE('',*,*,#63,.F.);
#384 = PLANE('',#385);
#385 = AXIS2_PLACEMENT_3D('',#386,#387,#388);
#386 = CARTESIAN_POINT('',(9.59716893978E-16,-6.858022075225E-16,4.8));
#387 = DIRECTION('',(-0.,1.224646799147E-16,1.));
#388 = DIRECTION('',(-1.,-0.,0.));
#389 = ADVANCED_FACE('',(#390),#417,.T.);
#390 = FACE_BOUND('',#391,.T.);
#391 = EDGE_LOOP('',(#392,#393,#394,#395,#403,#411));
#392 = ORIENTED_EDGE('',*,*,#104,.F.);
#393 = ORIENTED_EDGE('',*,*,#80,.T.);
#394 = ORIENTED_EDGE('',*,*,#378,.F.);
#395 = ORIENTED_EDGE('',*,*,#396,.F.);
#396 = EDGE_CURVE('',#397,#371,#399,.T.);
#397 = VERTEX_POINT('',#398);
#398 = CARTESIAN_POINT('',(-7.3,12.95,1.6));
#399 = LINE('',#400,#401);
#400 = CARTESIAN_POINT('',(-7.3,12.95,5.31));
#401 = VECTOR('',#402,1.);
#402 = DIRECTION('',(0.,1.224646799147E-16,1.));
#403 = ORIENTED_EDGE('',*,*,#404,.T.);
#404 = EDGE_CURVE('',#397,#405,#407,.T.);
#405 = VERTEX_POINT('',#406);
#406 = CARTESIAN_POINT('',(-7.3,11.,1.6));
#407 = LINE('',#408,#409);
#408 = CARTESIAN_POINT('',(-7.3,9.775,1.6));
#409 = VECTOR('',#410,1.);
#410 = DIRECTION('',(0.,-1.,1.224646799147E-16));
#411 = ORIENTED_EDGE('',*,*,#412,.F.);
#412 = EDGE_CURVE('',#105,#405,#413,.T.);
#413 = LINE('',#414,#415);
#414 = CARTESIAN_POINT('',(-7.3,11.,5.8));
#415 = VECTOR('',#416,1.);
#416 = DIRECTION('',(0.,1.224646799147E-16,1.));
#417 = PLANE('',#418);
#418 = AXIS2_PLACEMENT_3D('',#419,#420,#421);
#419 = CARTESIAN_POINT('',(-7.3,19.55,5.8));
#420 = DIRECTION('',(1.,0.,0.));
#421 = DIRECTION('',(0.,-1.224646799147E-16,-1.));
#422 = ADVANCED_FACE('',(#423),#434,.T.);
#423 = FACE_BOUND('',#424,.F.);
#424 = EDGE_LOOP('',(#425,#426,#432,#433));
#425 = ORIENTED_EDGE('',*,*,#243,.F.);
#426 = ORIENTED_EDGE('',*,*,#427,.T.);
#427 = EDGE_CURVE('',#244,#195,#428,.T.);
#428 = LINE('',#429,#430);
#429 = CARTESIAN_POINT('',(-9.4,-14.55,4.8));
#430 = VECTOR('',#431,1.);
#431 = DIRECTION('',(0.,-1.224646799147E-16,-1.));
#432 = ORIENTED_EDGE('',*,*,#202,.T.);
#433 = ORIENTED_EDGE('',*,*,#226,.F.);
#434 = CYLINDRICAL_SURFACE('',#435,3.55);
#435 = AXIS2_PLACEMENT_3D('',#436,#437,#438);
#436 = CARTESIAN_POINT('',(-9.4,-11.,4.8));
#437 = DIRECTION('',(-0.,1.224646799147E-16,1.));
#438 = DIRECTION('',(1.,0.,0.));
#439 = ADVANCED_FACE('',(#440),#451,.T.);
#440 = FACE_BOUND('',#441,.T.);
#441 = EDGE_LOOP('',(#442,#443,#444,#445));
#442 = ORIENTED_EDGE('',*,*,#252,.F.);
#443 = ORIENTED_EDGE('',*,*,#427,.T.);
#444 = ORIENTED_EDGE('',*,*,#194,.T.);
#445 = ORIENTED_EDGE('',*,*,#446,.F.);
#446 = EDGE_CURVE('',#253,#186,#447,.T.);
#447 = LINE('',#448,#449);
#448 = CARTESIAN_POINT('',(9.4,-14.55,4.8));
#449 = VECTOR('',#450,1.);
#450 = DIRECTION('',(0.,-1.224646799147E-16,-1.));
#451 = PLANE('',#452);
#452 = AXIS2_PLACEMENT_3D('',#453,#454,#455);
#453 = CARTESIAN_POINT('',(-9.4,-14.55,4.8));
#454 = DIRECTION('',(0.,-1.,1.224646799147E-16));
#455 = DIRECTION('',(0.,-1.224646799147E-16,-1.));
#456 = ADVANCED_FACE('',(#457),#468,.T.);
#457 = FACE_BOUND('',#458,.F.);
#458 = EDGE_LOOP('',(#459,#460,#466,#467));
#459 = ORIENTED_EDGE('',*,*,#260,.F.);
#460 = ORIENTED_EDGE('',*,*,#461,.T.);
#461 = EDGE_CURVE('',#261,#178,#462,.T.);
#462 = LINE('',#463,#464);
#463 = CARTESIAN_POINT('',(12.95,-11.,4.8));
#464 = VECTOR('',#465,1.);
#465 = DIRECTION('',(0.,-1.224646799147E-16,-1.));
#466 = ORIENTED_EDGE('',*,*,#185,.T.);
#467 = ORIENTED_EDGE('',*,*,#446,.F.);
#468 = CYLINDRICAL_SURFACE('',#469,3.55);
#469 = AXIS2_PLACEMENT_3D('',#470,#471,#472);
#470 = CARTESIAN_POINT('',(9.4,-11.,4.8));
#471 = DIRECTION('',(-0.,1.224646799147E-16,1.));
#472 = DIRECTION('',(1.,0.,0.));
#473 = ADVANCED_FACE('',(#474),#485,.T.);
#474 = FACE_BOUND('',#475,.T.);
#475 = EDGE_LOOP('',(#476,#482,#483,#484));
#476 = ORIENTED_EDGE('',*,*,#477,.F.);
#477 = EDGE_CURVE('',#270,#169,#478,.T.);
#478 = LINE('',#479,#480);
#479 = CARTESIAN_POINT('',(12.95,11.,4.8));
#480 = VECTOR('',#481,1.);
#481 = DIRECTION('',(0.,-1.224646799147E-16,-1.));
#482 = ORIENTED_EDGE('',*,*,#269,.T.);
#483 = ORIENTED_EDGE('',*,*,#461,.T.);
#484 = ORIENTED_EDGE('',*,*,#177,.F.);
#485 = PLANE('',#486);
#486 = AXIS2_PLACEMENT_3D('',#487,#488,#489);
#487 = CARTESIAN_POINT('',(12.95,11.,4.8));
#488 = DIRECTION('',(1.,0.,0.));
#489 = DIRECTION('',(0.,-1.224646799147E-16,-1.));
#490 = ADVANCED_FACE('',(#491),#502,.T.);
#491 = FACE_BOUND('',#492,.F.);
#492 = EDGE_LOOP('',(#493,#494,#495,#501));
#493 = ORIENTED_EDGE('',*,*,#477,.F.);
#494 = ORIENTED_EDGE('',*,*,#277,.F.);
#495 = ORIENTED_EDGE('',*,*,#496,.T.);
#496 = EDGE_CURVE('',#278,#161,#497,.T.);
#497 = LINE('',#498,#499);
#498 = CARTESIAN_POINT('',(9.4,14.55,4.8));
#499 = VECTOR('',#500,1.);
#500 = DIRECTION('',(0.,-1.224646799147E-16,-1.));
#501 = ORIENTED_EDGE('',*,*,#168,.T.);
#502 = CYLINDRICAL_SURFACE('',#503,3.55);
#503 = AXIS2_PLACEMENT_3D('',#504,#505,#506);
#504 = CARTESIAN_POINT('',(9.4,11.,4.8));
#505 = DIRECTION('',(-0.,1.224646799147E-16,1.));
#506 = DIRECTION('',(1.,0.,0.));
#507 = ADVANCED_FACE('',(#508),#519,.F.);
#508 = FACE_BOUND('',#509,.F.);
#509 = EDGE_LOOP('',(#510,#511,#517,#518));
#510 = ORIENTED_EDGE('',*,*,#286,.F.);
#511 = ORIENTED_EDGE('',*,*,#512,.F.);
#512 = EDGE_CURVE('',#153,#287,#513,.T.);
#513 = LINE('',#514,#515);
#514 = CARTESIAN_POINT('',(7.3,14.55,5.3));
#515 = VECTOR('',#516,1.);
#516 = DIRECTION('',(0.,1.224646799147E-16,1.));
#517 = ORIENTED_EDGE('',*,*,#160,.T.);
#518 = ORIENTED_EDGE('',*,*,#496,.F.);
#519 = PLANE('',#520);
#520 = AXIS2_PLACEMENT_3D('',#521,#522,#523);
#521 = CARTESIAN_POINT('',(-9.4,14.55,4.8));
#522 = DIRECTION('',(0.,-1.,1.224646799147E-16));
#523 = DIRECTION('',(0.,-1.224646799147E-16,-1.));
#524 = ADVANCED_FACE('',(#525),#552,.F.);
#525 = FACE_BOUND('',#526,.F.);
#526 = EDGE_LOOP('',(#527,#528,#529,#530,#538,#546));
#527 = ORIENTED_EDGE('',*,*,#152,.F.);
#528 = ORIENTED_EDGE('',*,*,#512,.T.);
#529 = ORIENTED_EDGE('',*,*,#294,.F.);
#530 = ORIENTED_EDGE('',*,*,#531,.F.);
#531 = EDGE_CURVE('',#532,#295,#534,.T.);
#532 = VERTEX_POINT('',#533);
#533 = CARTESIAN_POINT('',(7.3,12.95,1.6));
#534 = LINE('',#535,#536);
#535 = CARTESIAN_POINT('',(7.3,12.95,5.31));
#536 = VECTOR('',#537,1.);
#537 = DIRECTION('',(0.,1.224646799147E-16,1.));
#538 = ORIENTED_EDGE('',*,*,#539,.T.);
#539 = EDGE_CURVE('',#532,#540,#542,.T.);
#540 = VERTEX_POINT('',#541);
#541 = CARTESIAN_POINT('',(7.3,11.,1.6));
#542 = LINE('',#543,#544);
#543 = CARTESIAN_POINT('',(7.3,9.775,1.6));
#544 = VECTOR('',#545,1.);
#545 = DIRECTION('',(0.,-1.,1.224646799147E-16));
#546 = ORIENTED_EDGE('',*,*,#547,.F.);
#547 = EDGE_CURVE('',#145,#540,#548,.T.);
#548 = LINE('',#549,#550);
#549 = CARTESIAN_POINT('',(7.3,11.,5.8));
#550 = VECTOR('',#551,1.);
#551 = DIRECTION('',(0.,1.224646799147E-16,1.));
#552 = PLANE('',#553);
#553 = AXIS2_PLACEMENT_3D('',#554,#555,#556);
#554 = CARTESIAN_POINT('',(7.3,19.55,5.8));
#555 = DIRECTION('',(1.,0.,0.));
#556 = DIRECTION('',(0.,-1.224646799147E-16,-1.));
#557 = ADVANCED_FACE('',(#558),#576,.T.);
#558 = FACE_BOUND('',#559,.T.);
#559 = EDGE_LOOP('',(#560,#568,#574,#575));
#560 = ORIENTED_EDGE('',*,*,#561,.F.);
#561 = EDGE_CURVE('',#562,#137,#564,.T.);
#562 = VERTEX_POINT('',#563);
#563 = CARTESIAN_POINT('',(9.4,11.,1.6));
#564 = LINE('',#565,#566);
#565 = CARTESIAN_POINT('',(9.4,11.,5.8));
#566 = VECTOR('',#567,1.);
#567 = DIRECTION('',(0.,-1.224646799147E-16,-1.));
#568 = ORIENTED_EDGE('',*,*,#569,.T.);
#569 = EDGE_CURVE('',#562,#540,#570,.T.);
#570 = LINE('',#571,#572);
#571 = CARTESIAN_POINT('',(-4.7,11.,1.6));
#572 = VECTOR('',#573,1.);
#573 = DIRECTION('',(-1.,-0.,0.));
#574 = ORIENTED_EDGE('',*,*,#547,.F.);
#575 = ORIENTED_EDGE('',*,*,#144,.F.);
#576 = PLANE('',#577);
#577 = AXIS2_PLACEMENT_3D('',#578,#579,#580);
#578 = CARTESIAN_POINT('',(-9.4,11.,5.8));
#579 = DIRECTION('',(0.,-1.,1.224646799147E-16));
#580 = DIRECTION('',(0.,-1.224646799147E-16,-1.));
#581 = ADVANCED_FACE('',(#582),#600,.F.);
#582 = FACE_BOUND('',#583,.F.);
#583 = EDGE_LOOP('',(#584,#585,#593,#599));
#584 = ORIENTED_EDGE('',*,*,#561,.F.);
#585 = ORIENTED_EDGE('',*,*,#586,.T.);
#586 = EDGE_CURVE('',#562,#587,#589,.T.);
#587 = VERTEX_POINT('',#588);
#588 = CARTESIAN_POINT('',(9.4,-11.,1.6));
#589 = LINE('',#590,#591);
#590 = CARTESIAN_POINT('',(9.4,5.5,1.6));
#591 = VECTOR('',#592,1.);
#592 = DIRECTION('',(0.,-1.,1.224646799147E-16));
#593 = ORIENTED_EDGE('',*,*,#594,.T.);
#594 = EDGE_CURVE('',#587,#129,#595,.T.);
#595 = LINE('',#596,#597);
#596 = CARTESIAN_POINT('',(9.4,-11.,5.8));
#597 = VECTOR('',#598,1.);
#598 = DIRECTION('',(0.,-1.224646799147E-16,-1.));
#599 = ORIENTED_EDGE('',*,*,#136,.F.);
#600 = PLANE('',#601);
#601 = AXIS2_PLACEMENT_3D('',#602,#603,#604);
#602 = CARTESIAN_POINT('',(9.4,11.,5.8));
#603 = DIRECTION('',(1.,0.,0.));
#604 = DIRECTION('',(0.,-1.224646799147E-16,-1.));
#605 = ADVANCED_FACE('',(#606),#624,.F.);
#606 = FACE_BOUND('',#607,.F.);
#607 = EDGE_LOOP('',(#608,#609,#617,#623));
#608 = ORIENTED_EDGE('',*,*,#594,.F.);
#609 = ORIENTED_EDGE('',*,*,#610,.T.);
#610 = EDGE_CURVE('',#587,#611,#613,.T.);
#611 = VERTEX_POINT('',#612);
#612 = CARTESIAN_POINT('',(-9.4,-11.,1.6));
#613 = LINE('',#614,#615);
#614 = CARTESIAN_POINT('',(-4.7,-11.,1.6));
#615 = VECTOR('',#616,1.);
#616 = DIRECTION('',(-1.,-0.,0.));
#617 = ORIENTED_EDGE('',*,*,#618,.T.);
#618 = EDGE_CURVE('',#611,#121,#619,.T.);
#619 = LINE('',#620,#621);
#620 = CARTESIAN_POINT('',(-9.4,-11.,5.8));
#621 = VECTOR('',#622,1.);
#622 = DIRECTION('',(0.,-1.224646799147E-16,-1.));
#623 = ORIENTED_EDGE('',*,*,#128,.F.);
#624 = PLANE('',#625);
#625 = AXIS2_PLACEMENT_3D('',#626,#627,#628);
#626 = CARTESIAN_POINT('',(-9.4,-11.,5.8));
#627 = DIRECTION('',(0.,-1.,1.224646799147E-16));
#628 = DIRECTION('',(0.,-1.224646799147E-16,-1.));
#629 = ADVANCED_FACE('',(#630),#648,.T.);
#630 = FACE_BOUND('',#631,.T.);
#631 = EDGE_LOOP('',(#632,#640,#646,#647));
#632 = ORIENTED_EDGE('',*,*,#633,.F.);
#633 = EDGE_CURVE('',#634,#113,#636,.T.);
#634 = VERTEX_POINT('',#635);
#635 = CARTESIAN_POINT('',(-9.4,11.,1.6));
#636 = LINE('',#637,#638);
#637 = CARTESIAN_POINT('',(-9.4,11.,5.8));
#638 = VECTOR('',#639,1.);
#639 = DIRECTION('',(0.,-1.224646799147E-16,-1.));
#640 = ORIENTED_EDGE('',*,*,#641,.T.);
#641 = EDGE_CURVE('',#634,#611,#642,.T.);
#642 = LINE('',#643,#644);
#643 = CARTESIAN_POINT('',(-9.4,5.5,1.6));
#644 = VECTOR('',#645,1.);
#645 = DIRECTION('',(0.,-1.,1.224646799147E-16));
#646 = ORIENTED_EDGE('',*,*,#618,.T.);
#647 = ORIENTED_EDGE('',*,*,#120,.F.);
#648 = PLANE('',#649);
#649 = AXIS2_PLACEMENT_3D('',#650,#651,#652);
#650 = CARTESIAN_POINT('',(-9.4,11.,5.8));
#651 = DIRECTION('',(1.,0.,0.));
#652 = DIRECTION('',(0.,-1.224646799147E-16,-1.));
#653 = ADVANCED_FACE('',(#654),#665,.T.);
#654 = FACE_BOUND('',#655,.T.);
#655 = EDGE_LOOP('',(#656,#657,#663,#664));
#656 = ORIENTED_EDGE('',*,*,#412,.T.);
#657 = ORIENTED_EDGE('',*,*,#658,.T.);
#658 = EDGE_CURVE('',#405,#634,#659,.T.);
#659 = LINE('',#660,#661);
#660 = CARTESIAN_POINT('',(-4.7,11.,1.6));
#661 = VECTOR('',#662,1.);
#662 = DIRECTION('',(-1.,-0.,0.));
#663 = ORIENTED_EDGE('',*,*,#633,.T.);
#664 = ORIENTED_EDGE('',*,*,#112,.F.);
#665 = PLANE('',#666);
#666 = AXIS2_PLACEMENT_3D('',#667,#668,#669);
#667 = CARTESIAN_POINT('',(-9.4,11.,5.8));
#668 = DIRECTION('',(0.,-1.,1.224646799147E-16));
#669 = DIRECTION('',(0.,-1.224646799147E-16,-1.));
#670 = ADVANCED_FACE('',(#671),#689,.T.);
#671 = FACE_BOUND('',#672,.T.);
#672 = EDGE_LOOP('',(#673,#674,#682,#688));
#673 = ORIENTED_EDGE('',*,*,#370,.F.);
#674 = ORIENTED_EDGE('',*,*,#675,.T.);
#675 = EDGE_CURVE('',#362,#676,#678,.T.);
#676 = VERTEX_POINT('',#677);
#677 = CARTESIAN_POINT('',(-9.4,12.95,1.6));
#678 = LINE('',#679,#680);
#679 = CARTESIAN_POINT('',(-9.4,12.95,4.82));
#680 = VECTOR('',#681,1.);
#681 = DIRECTION('',(0.,-1.224646799147E-16,-1.));
#682 = ORIENTED_EDGE('',*,*,#683,.T.);
#683 = EDGE_CURVE('',#676,#397,#684,.T.);
#684 = LINE('',#685,#686);
#685 = CARTESIAN_POINT('',(-9.4,12.95,1.6));
#686 = VECTOR('',#687,1.);
#687 = DIRECTION('',(1.,0.,0.));
#688 = ORIENTED_EDGE('',*,*,#396,.T.);
#689 = PLANE('',#690);
#690 = AXIS2_PLACEMENT_3D('',#691,#692,#693);
#691 = CARTESIAN_POINT('',(-9.4,12.95,4.82));
#692 = DIRECTION('',(0.,-1.,1.224646799147E-16));
#693 = DIRECTION('',(0.,-1.224646799147E-16,-1.));
#694 = ADVANCED_FACE('',(#695),#714,.F.);
#695 = FACE_BOUND('',#696,.T.);
#696 = EDGE_LOOP('',(#697,#698,#699,#707));
#697 = ORIENTED_EDGE('',*,*,#675,.F.);
#698 = ORIENTED_EDGE('',*,*,#361,.T.);
#699 = ORIENTED_EDGE('',*,*,#700,.T.);
#700 = EDGE_CURVE('',#354,#701,#703,.T.);
#701 = VERTEX_POINT('',#702);
#702 = CARTESIAN_POINT('',(-11.35,11.,1.6));
#703 = LINE('',#704,#705);
#704 = CARTESIAN_POINT('',(-11.35,11.,4.82));
#705 = VECTOR('',#706,1.);
#706 = DIRECTION('',(0.,-1.224646799147E-16,-1.));
#707 = ORIENTED_EDGE('',*,*,#708,.T.);
#708 = EDGE_CURVE('',#701,#676,#709,.T.);
#709 = CIRCLE('',#710,1.95);
#710 = AXIS2_PLACEMENT_3D('',#711,#712,#713);
#711 = CARTESIAN_POINT('',(-9.4,11.,1.6));
#712 = DIRECTION('',(0.,-1.224646799147E-16,-1.));
#713 = DIRECTION('',(1.,0.,0.));
#714 = CYLINDRICAL_SURFACE('',#715,1.95);
#715 = AXIS2_PLACEMENT_3D('',#716,#717,#718);
#716 = CARTESIAN_POINT('',(-9.4,11.,4.82));
#717 = DIRECTION('',(-0.,1.224646799147E-16,1.));
#718 = DIRECTION('',(1.,0.,0.));
#719 = ADVANCED_FACE('',(#720),#738,.T.);
#720 = FACE_BOUND('',#721,.T.);
#721 = EDGE_LOOP('',(#722,#723,#724,#732));
#722 = ORIENTED_EDGE('',*,*,#700,.F.);
#723 = ORIENTED_EDGE('',*,*,#353,.F.);
#724 = ORIENTED_EDGE('',*,*,#725,.T.);
#725 = EDGE_CURVE('',#345,#726,#728,.T.);
#726 = VERTEX_POINT('',#727);
#727 = CARTESIAN_POINT('',(-11.35,-11.,1.6));
#728 = LINE('',#729,#730);
#729 = CARTESIAN_POINT('',(-11.35,-11.,4.82));
#730 = VECTOR('',#731,1.);
#731 = DIRECTION('',(0.,-1.224646799147E-16,-1.));
#732 = ORIENTED_EDGE('',*,*,#733,.F.);
#733 = EDGE_CURVE('',#701,#726,#734,.T.);
#734 = LINE('',#735,#736);
#735 = CARTESIAN_POINT('',(-11.35,11.,1.6));
#736 = VECTOR('',#737,1.);
#737 = DIRECTION('',(0.,-1.,1.224646799147E-16));
#738 = PLANE('',#739);
#739 = AXIS2_PLACEMENT_3D('',#740,#741,#742);
#740 = CARTESIAN_POINT('',(-11.35,11.,4.82));
#741 = DIRECTION('',(1.,0.,0.));
#742 = DIRECTION('',(0.,-1.224646799147E-16,-1.));
#743 = ADVANCED_FACE('',(#744),#763,.F.);
#744 = FACE_BOUND('',#745,.T.);
#745 = EDGE_LOOP('',(#746,#747,#755,#762));
#746 = ORIENTED_EDGE('',*,*,#344,.T.);
#747 = ORIENTED_EDGE('',*,*,#748,.T.);
#748 = EDGE_CURVE('',#337,#749,#751,.T.);
#749 = VERTEX_POINT('',#750);
#750 = CARTESIAN_POINT('',(-9.4,-12.95,1.6));
#751 = LINE('',#752,#753);
#752 = CARTESIAN_POINT('',(-9.4,-12.95,4.82));
#753 = VECTOR('',#754,1.);
#754 = DIRECTION('',(0.,-1.224646799147E-16,-1.));
#755 = ORIENTED_EDGE('',*,*,#756,.T.);
#756 = EDGE_CURVE('',#749,#726,#757,.T.);
#757 = CIRCLE('',#758,1.95);
#758 = AXIS2_PLACEMENT_3D('',#759,#760,#761);
#759 = CARTESIAN_POINT('',(-9.4,-11.,1.6));
#760 = DIRECTION('',(0.,-1.224646799147E-16,-1.));
#761 = DIRECTION('',(1.,0.,0.));
#762 = ORIENTED_EDGE('',*,*,#725,.F.);
#763 = CYLINDRICAL_SURFACE('',#764,1.95);
#764 = AXIS2_PLACEMENT_3D('',#765,#766,#767);
#765 = CARTESIAN_POINT('',(-9.4,-11.,4.82));
#766 = DIRECTION('',(-0.,1.224646799147E-16,1.));
#767 = DIRECTION('',(1.,0.,0.));
#768 = ADVANCED_FACE('',(#769),#787,.F.);
#769 = FACE_BOUND('',#770,.F.);
#770 = EDGE_LOOP('',(#771,#772,#773,#781));
#771 = ORIENTED_EDGE('',*,*,#336,.F.);
#772 = ORIENTED_EDGE('',*,*,#748,.T.);
#773 = ORIENTED_EDGE('',*,*,#774,.T.);
#774 = EDGE_CURVE('',#749,#775,#777,.T.);
#775 = VERTEX_POINT('',#776);
#776 = CARTESIAN_POINT('',(9.4,-12.95,1.6));
#777 = LINE('',#778,#779);
#778 = CARTESIAN_POINT('',(-9.4,-12.95,1.6));
#779 = VECTOR('',#780,1.);
#780 = DIRECTION('',(1.,0.,0.));
#781 = ORIENTED_EDGE('',*,*,#782,.F.);
#782 = EDGE_CURVE('',#328,#775,#783,.T.);
#783 = LINE('',#784,#785);
#784 = CARTESIAN_POINT('',(9.4,-12.95,4.82));
#785 = VECTOR('',#786,1.);
#786 = DIRECTION('',(0.,-1.224646799147E-16,-1.));
#787 = PLANE('',#788);
#788 = AXIS2_PLACEMENT_3D('',#789,#790,#791);
#789 = CARTESIAN_POINT('',(-9.4,-12.95,4.82));
#790 = DIRECTION('',(0.,-1.,1.224646799147E-16));
#791 = DIRECTION('',(0.,-1.224646799147E-16,-1.));
#792 = ADVANCED_FACE('',(#793),#812,.F.);
#793 = FACE_BOUND('',#794,.T.);
#794 = EDGE_LOOP('',(#795,#796,#804,#811));
#795 = ORIENTED_EDGE('',*,*,#327,.T.);
#796 = ORIENTED_EDGE('',*,*,#797,.T.);
#797 = EDGE_CURVE('',#320,#798,#800,.T.);
#798 = VERTEX_POINT('',#799);
#799 = CARTESIAN_POINT('',(11.35,-11.,1.6));
#800 = LINE('',#801,#802);
#801 = CARTESIAN_POINT('',(11.35,-11.,4.82));
#802 = VECTOR('',#803,1.);
#803 = DIRECTION('',(0.,-1.224646799147E-16,-1.));
#804 = ORIENTED_EDGE('',*,*,#805,.T.);
#805 = EDGE_CURVE('',#798,#775,#806,.T.);
#806 = CIRCLE('',#807,1.95);
#807 = AXIS2_PLACEMENT_3D('',#808,#809,#810);
#808 = CARTESIAN_POINT('',(9.4,-11.,1.6));
#809 = DIRECTION('',(0.,-1.224646799147E-16,-1.));
#810 = DIRECTION('',(1.,0.,0.));
#811 = ORIENTED_EDGE('',*,*,#782,.F.);
#812 = CYLINDRICAL_SURFACE('',#813,1.95);
#813 = AXIS2_PLACEMENT_3D('',#814,#815,#816);
#814 = CARTESIAN_POINT('',(9.4,-11.,4.82));
#815 = DIRECTION('',(-0.,1.224646799147E-16,1.));
#816 = DIRECTION('',(1.,0.,0.));
#817 = ADVANCED_FACE('',(#818),#836,.F.);
#818 = FACE_BOUND('',#819,.F.);
#819 = EDGE_LOOP('',(#820,#828,#829,#830));
#820 = ORIENTED_EDGE('',*,*,#821,.F.);
#821 = EDGE_CURVE('',#311,#822,#824,.T.);
#822 = VERTEX_POINT('',#823);
#823 = CARTESIAN_POINT('',(11.35,11.,1.6));
#824 = LINE('',#825,#826);
#825 = CARTESIAN_POINT('',(11.35,11.,4.82));
#826 = VECTOR('',#827,1.);
#827 = DIRECTION('',(0.,-1.224646799147E-16,-1.));
#828 = ORIENTED_EDGE('',*,*,#319,.F.);
#829 = ORIENTED_EDGE('',*,*,#797,.T.);
#830 = ORIENTED_EDGE('',*,*,#831,.F.);
#831 = EDGE_CURVE('',#822,#798,#832,.T.);
#832 = LINE('',#833,#834);
#833 = CARTESIAN_POINT('',(11.35,11.,1.6));
#834 = VECTOR('',#835,1.);
#835 = DIRECTION('',(0.,-1.,1.224646799147E-16));
#836 = PLANE('',#837);
#837 = AXIS2_PLACEMENT_3D('',#838,#839,#840);
#838 = CARTESIAN_POINT('',(11.35,11.,4.82));
#839 = DIRECTION('',(1.,0.,0.));
#840 = DIRECTION('',(0.,-1.224646799147E-16,-1.));
#841 = ADVANCED_FACE('',(#842),#861,.F.);
#842 = FACE_BOUND('',#843,.T.);
#843 = EDGE_LOOP('',(#844,#853,#854,#855));
#844 = ORIENTED_EDGE('',*,*,#845,.T.);
#845 = EDGE_CURVE('',#846,#822,#848,.T.);
#846 = VERTEX_POINT('',#847);
#847 = CARTESIAN_POINT('',(9.4,12.95,1.6));
#848 = CIRCLE('',#849,1.95);
#849 = AXIS2_PLACEMENT_3D('',#850,#851,#852);
#850 = CARTESIAN_POINT('',(9.4,11.,1.6));
#851 = DIRECTION('',(0.,-1.224646799147E-16,-1.));
#852 = DIRECTION('',(1.,0.,0.));
#853 = ORIENTED_EDGE('',*,*,#821,.F.);
#854 = ORIENTED_EDGE('',*,*,#310,.T.);
#855 = ORIENTED_EDGE('',*,*,#856,.T.);
#856 = EDGE_CURVE('',#303,#846,#857,.T.);
#857 = LINE('',#858,#859);
#858 = CARTESIAN_POINT('',(9.4,12.95,4.82));
#859 = VECTOR('',#860,1.);
#860 = DIRECTION('',(0.,-1.224646799147E-16,-1.));
#861 = CYLINDRICAL_SURFACE('',#862,1.95);
#862 = AXIS2_PLACEMENT_3D('',#863,#864,#865);
#863 = CARTESIAN_POINT('',(9.4,11.,4.82));
#864 = DIRECTION('',(-0.,1.224646799147E-16,1.));
#865 = DIRECTION('',(1.,0.,0.));
#866 = ADVANCED_FACE('',(#867),#878,.T.);
#867 = FACE_BOUND('',#868,.T.);
#868 = EDGE_LOOP('',(#869,#870,#871,#877));
#869 = ORIENTED_EDGE('',*,*,#302,.F.);
#870 = ORIENTED_EDGE('',*,*,#531,.F.);
#871 = ORIENTED_EDGE('',*,*,#872,.T.);
#872 = EDGE_CURVE('',#532,#846,#873,.T.);
#873 = LINE('',#874,#875);
#874 = CARTESIAN_POINT('',(-9.4,12.95,1.6));
#875 = VECTOR('',#876,1.);
#876 = DIRECTION('',(1.,0.,0.));
#877 = ORIENTED_EDGE('',*,*,#856,.F.);
#878 = PLANE('',#879);
#879 = AXIS2_PLACEMENT_3D('',#880,#881,#882);
#880 = CARTESIAN_POINT('',(-9.4,12.95,4.82));
#881 = DIRECTION('',(0.,-1.,1.224646799147E-16));
#882 = DIRECTION('',(0.,-1.224646799147E-16,-1.));
#883 = ADVANCED_FACE('',(#884),#902,.F.);
#884 = FACE_BOUND('',#885,.F.);
#885 = EDGE_LOOP('',(#886,#887,#888,#889,#890,#891,#892,#893,#894,#895,
    #896,#897,#898,#899,#900,#901));
#886 = ORIENTED_EDGE('',*,*,#733,.F.);
#887 = ORIENTED_EDGE('',*,*,#708,.T.);
#888 = ORIENTED_EDGE('',*,*,#683,.T.);
#889 = ORIENTED_EDGE('',*,*,#404,.T.);
#890 = ORIENTED_EDGE('',*,*,#658,.T.);
#891 = ORIENTED_EDGE('',*,*,#641,.T.);
#892 = ORIENTED_EDGE('',*,*,#610,.F.);
#893 = ORIENTED_EDGE('',*,*,#586,.F.);
#894 = ORIENTED_EDGE('',*,*,#569,.T.);
#895 = ORIENTED_EDGE('',*,*,#539,.F.);
#896 = ORIENTED_EDGE('',*,*,#872,.T.);
#897 = ORIENTED_EDGE('',*,*,#845,.T.);
#898 = ORIENTED_EDGE('',*,*,#831,.T.);
#899 = ORIENTED_EDGE('',*,*,#805,.T.);
#900 = ORIENTED_EDGE('',*,*,#774,.F.);
#901 = ORIENTED_EDGE('',*,*,#756,.T.);
#902 = PLANE('',#903);
#903 = AXIS2_PLACEMENT_3D('',#904,#905,#906);
#904 = CARTESIAN_POINT('',(-3.032854664767E-16,-9.260464500113E-16,1.6)
  );
#905 = DIRECTION('',(0.,-1.224646799147E-16,-1.));
#906 = DIRECTION('',(1.,0.,0.));
#907 = ( GEOMETRIC_REPRESENTATION_CONTEXT(3)
GLOBAL_UNCERTAINTY_ASSIGNED_CONTEXT((#911)) GLOBAL_UNIT_ASSIGNED_CONTEXT
((#908,#909,#910)) REPRESENTATION_CONTEXT('Context #1',
  '3D Context with UNIT and UNCERTAINTY') );
#908 = ( LENGTH_UNIT() NAMED_UNIT(*) SI_UNIT(.MILLI.,.METRE.) );
#909 = ( NAMED_UNIT(*) PLANE_ANGLE_UNIT() SI_UNIT($,.RADIAN.) );
#910 = ( NAMED_UNIT(*) SI_UNIT($,.STERADIAN.) SOLID_ANGLE_UNIT() );
#911 = UNCERTAINTY_MEASURE_WITH_UNIT(LENGTH_MEASURE(1.E-05),#908,
  'distance_accuracy_value','confusion accuracy');
#912 = PRODUCT_RELATED_PRODUCT_CATEGORY('part',$,(#7));
ENDSEC;
END-ISO-10303-21;
